<?xml version="1.0" encoding="utf-8"?>
<!-- Generator: Adobe Illustrator 16.0.0, SVG Export Plug-In . SVG Version: 6.00 Build 0)  -->
<!DOCTYPE svg PUBLIC "-//W3C//DTD SVG 1.1//EN" "http://www.w3.org/Graphics/SVG/1.1/DTD/svg11.dtd">
<svg version="1.1" id="OBJECTS" xmlns="http://www.w3.org/2000/svg" xmlns:xlink="http://www.w3.org/1999/xlink" x="0px" y="0px"
	 width="525.317px" height="379.669px" viewBox="0 0 525.317 379.669" enable-background="new 0 0 525.317 379.669"
	 xml:space="preserve">
<path opacity="0.25" fill="#D7E2FF" d="M131.503,80.572H64.716c-8.304,0-15.098-6.794-15.098-15.098l0,0
	c0-8.304,6.794-15.098,15.098-15.098h66.787c8.304,0,15.098,6.794,15.098,15.098l0,0C146.601,73.778,139.807,80.572,131.503,80.572z
	"/>
<path opacity="0.25" fill="#D7E2FF" d="M139.504,126.961H93.992c-5.658,0-10.288-4.63-10.288-10.289l0,0
	c0-5.659,4.63-10.289,10.288-10.289h45.512c5.658,0,10.288,4.63,10.288,10.289l0,0C149.792,122.332,145.162,126.961,139.504,126.961
	z"/>
<path opacity="0.2" fill="#D7E2FF" d="M159.359,87.436h-30.36c-3.775,0-6.864-3.088-6.864-6.864l0,0
	c0-3.775,3.089-6.863,6.864-6.863h30.36c3.775,0,6.864,3.088,6.864,6.863l0,0C166.224,84.348,163.135,87.436,159.359,87.436z"/>
<path opacity="0.25" fill="#D7E2FF" d="M488.318,79.852H436.31c-6.467,0-11.758-5.291-11.758-11.758l0,0
	c0-6.466,5.291-11.757,11.758-11.757h52.009c6.467,0,11.758,5.291,11.758,11.757l0,0C500.076,74.561,494.785,79.852,488.318,79.852z
	"/>
<path opacity="0.25" fill="#D7E2FF" d="M513.56,176.649h-52.009c-6.467,0-11.758-5.291-11.758-11.758l0,0
	c0-6.467,5.291-11.757,11.758-11.757h52.009c6.467,0,11.758,5.291,11.758,11.757l0,0
	C525.317,171.358,520.026,176.649,513.56,176.649z"/>
<path opacity="0.25" fill="#D7E2FF" d="M80.858,214.61H14.909C6.709,214.61,0,207.901,0,199.701l0,0
	c0-8.2,6.709-14.909,14.909-14.909h65.949c8.2,0,14.909,6.709,14.909,14.909l0,0C95.768,207.901,89.059,214.61,80.858,214.61z"/>
<path opacity="0.2" fill="#D7E2FF" d="M439.426,52.837h-23.644c-2.939,0-5.345-2.405-5.345-5.345l0,0
	c0-2.939,2.405-5.345,5.345-5.345h23.644c2.939,0,5.345,2.405,5.345,5.345l0,0C444.771,50.432,442.365,52.837,439.426,52.837z"/>
<circle opacity="0.3" fill="#C5D7FF" cx="152.047" cy="47.019" r="5.168"/>
<circle opacity="0.3" fill="#C5D7FF" cx="116.748" cy="172.61" r="13.748"/>
<circle opacity="0.3" fill="#C5D7FF" cx="476.063" cy="129.21" r="13.748"/>
<circle opacity="0.3" fill="#C5D7FF" cx="449.571" cy="299.958" r="28.996"/>
<g>
	<g opacity="0.5">
		
			<image overflow="visible" opacity="0.7" width="392" height="280" xlink:href="832D3C31.png"  transform="matrix(1 0 0 1 94.7158 99.6694)">
		</image>
		<g>
			<linearGradient id="SVGID_1_" gradientUnits="userSpaceOnUse" x1="117.2383" y1="228.083" x2="463.6504" y2="228.083">
				<stop  offset="0" style="stop-color:#5D539B"/>
				<stop  offset="0.6178" style="stop-color:#9977D7"/>
				<stop  offset="1" style="stop-color:#C08FFF"/>
			</linearGradient>
			<ellipse fill="url(#SVGID_1_)" cx="290.444" cy="228.083" rx="173.206" ry="117.247"/>
		</g>
	</g>
	<g opacity="0.75">
		<linearGradient id="SVGID_2_" gradientUnits="userSpaceOnUse" x1="117.2383" y1="229.6611" x2="463.6504" y2="229.6611">
			<stop  offset="0" style="stop-color:#DC7006"/>
			<stop  offset="1" style="stop-color:#FFD106"/>
		</linearGradient>
		<ellipse fill="url(#SVGID_2_)" cx="290.444" cy="229.661" rx="173.206" ry="117.247"/>
		<linearGradient id="SVGID_3_" gradientUnits="userSpaceOnUse" x1="118.5" y1="223.7021" x2="462.3887" y2="223.7021">
			<stop  offset="0" style="stop-color:#FF9D06"/>
			<stop  offset="1" style="stop-color:#FFD106"/>
		</linearGradient>
		<ellipse fill="url(#SVGID_3_)" cx="290.444" cy="223.702" rx="171.944" ry="117.247"/>
	</g>
	<g>
		<linearGradient id="SVGID_4_" gradientUnits="userSpaceOnUse" x1="131.0967" y1="217.3291" x2="449.793" y2="217.3291">
			<stop  offset="0" style="stop-color:#1F0463"/>
			<stop  offset="0.4123" style="stop-color:#1F419B"/>
			<stop  offset="1" style="stop-color:#209EF0"/>
		</linearGradient>
		<ellipse fill="url(#SVGID_4_)" cx="290.445" cy="217.328" rx="159.348" ry="107.867"/>
		<linearGradient id="SVGID_5_" gradientUnits="userSpaceOnUse" x1="131.75" y1="211.8467" x2="449.1396" y2="211.8467">
			<stop  offset="0" style="stop-color:#1F3696"/>
			<stop  offset="0.5949" style="stop-color:#2072CA"/>
			<stop  offset="1" style="stop-color:#209EF0"/>
		</linearGradient>
		<ellipse fill="url(#SVGID_5_)" cx="290.445" cy="211.847" rx="158.695" ry="107.866"/>
	</g>
	<g opacity="0.3">
		<path fill="#FFFFFF" d="M292.174,200.185c11.518,0.806,20.41,8.274,19.824,16.648s-10.432,14.532-21.948,13.728
			c-11.518-0.806-20.41-8.274-19.824-16.648S280.656,199.379,292.174,200.185z"/>
		<path fill="#FFFFFF" d="M356.967,129.378c3.969,0.278,7.447,1.16,10.341,2.621c4.996,2.524,8.404,6.831,10.127,12.796
			c2.919,10.104,0.696,24.488-6.259,40.502c-7.397,17.029-19.686,35.204-35.535,52.558c-17.196,18.837-37.836,35.603-58.114,47.207
			c-20.067,11.482-38.63,17.282-52.267,16.328c-3.968-0.277-7.447-1.159-10.341-2.621c-4.997-2.523-8.403-6.829-10.129-12.797
			c-2.918-10.104-0.695-24.488,6.261-40.5c7.396-17.03,19.685-35.205,35.534-52.56c17.198-18.837,37.836-35.602,58.114-47.205
			C324.766,134.224,343.328,128.425,356.967,129.378L356.967,129.378z M226.12,300.268c12.972,0.907,31.245-5.152,51.455-17.063
			c19.987-11.779,40.032-28.161,56.439-46.126c30.664-33.567,47.938-71.357,42.007-91.897c-1.604-5.558-4.893-9.626-9.773-12.093
			c-2.87-1.452-6.282-2.323-10.142-2.593c-12.972-0.907-31.246,5.152-51.455,17.063c-19.987,11.779-40.031,28.16-56.439,46.125
			c-30.663,33.568-47.938,71.357-42.009,91.897c1.605,5.559,4.895,9.628,9.775,12.095
			C218.85,299.126,222.262,299.998,226.12,300.268z"/>
		<path fill="#FFFFFF" d="M237.866,121.042c13.634,0.953,31.205,9.279,49.479,23.443c18.466,14.313,36.574,33.787,50.99,54.835
			c13.279,19.389,22.92,39.096,27.875,56.988c4.66,16.822,4.859,31.375,0.563,40.977c-2.538,5.672-6.513,9.463-11.813,11.268
			c-3.067,1.045-6.635,1.434-10.602,1.156c-13.631-0.953-31.202-9.279-49.477-23.443c-18.466-14.313-36.576-33.787-50.991-54.835
			c-13.28-19.389-22.919-39.096-27.876-56.988c-4.659-16.824-4.858-31.376-0.563-40.977c2.536-5.671,6.511-9.463,11.813-11.269
			C230.334,121.153,233.899,120.764,237.866,121.042L237.866,121.042z M343.66,308.483c3.859,0.271,7.36-0.118,10.403-1.156
			c5.175-1.76,8.997-5.329,11.361-10.607c8.733-19.51-3.112-59.339-28.808-96.857c-13.749-20.073-31.319-39.084-49.471-53.532
			c-18.358-14.607-35.609-23.152-48.58-24.059c-3.859-0.27-7.36,0.118-10.403,1.156c-5.176,1.761-8.997,5.33-11.36,10.608
			c-8.734,19.51,3.111,59.34,28.807,96.858c13.749,20.074,31.319,39.085,49.473,53.531
			C313.438,299.033,330.689,307.577,343.66,308.483z"/>
		<path fill="#FFFFFF" d="M293.807,176.828c38.331,2.681,73.964,9.58,100.332,19.428c24.162,9.022,37.645,19.561,36.991,28.907
			c-0.654,9.348-15.47,17.905-40.646,23.479c-27.482,6.082-63.731,7.957-102.067,5.276c-38.33-2.681-73.963-9.581-100.331-19.429
			c-24.161-9.023-37.646-19.56-36.991-28.908c0.653-9.347,15.47-17.904,40.646-23.477
			C219.223,176.021,255.47,174.147,293.807,176.828z M288.51,252.588c34.981,2.445,69.161,0.988,96.24-4.104
			c27.991-5.262,43.785-13.587,44.474-23.44c0.688-9.85-13.794-20.29-40.781-29.4c-26.112-8.813-59.754-15.013-94.73-17.459
			c-34.981-2.445-69.161-0.988-96.24,4.104c-27.989,5.264-43.785,13.587-44.474,23.44c-0.689,9.851,13.794,20.291,40.782,29.4
			C219.892,243.941,253.533,250.142,288.51,252.588z"/>
	</g>
	<g display="none" opacity="0.12">
		<path display="inline" fill="#FFFFFF" d="M290.872,277.893c-96.244,0-174.544-56.536-174.544-126.03
			c0-69.493,78.3-126.03,174.544-126.03s174.545,56.537,174.545,126.03C465.417,221.356,387.116,277.893,290.872,277.893z
			 M290.872,26.964c-95.62,0-173.412,56.028-173.412,124.898c0,68.869,77.792,124.898,173.412,124.898
			s173.413-56.029,173.413-124.898C464.285,82.992,386.492,26.964,290.872,26.964z"/>
	</g>
	<g display="none" opacity="0.38">
		<path display="inline" fill="#FFFFFF" d="M290.444,286.12c-100.484,0-182.234-59.757-182.234-133.209
			c0-73.45,81.75-133.207,182.234-133.207s182.234,59.757,182.234,133.207C472.679,226.363,390.929,286.12,290.444,286.12z
			 M290.444,23.1c-98.612,0-178.839,58.232-178.839,129.812c0,71.58,80.227,129.813,178.839,129.813s178.839-58.233,178.839-129.813
			C469.283,81.332,389.057,23.1,290.444,23.1z"/>
	</g>
	<g>
		<g enable-background="new    ">
			<g>
				<linearGradient id="SVGID_6_" gradientUnits="userSpaceOnUse" x1="322.4336" y1="125.377" x2="322.4336" y2="120.1201">
					<stop  offset="0" style="stop-color:#F47F31"/>
					<stop  offset="0.5895" style="stop-color:#EDBB33"/>
					<stop  offset="1" style="stop-color:#E8E834"/>
				</linearGradient>
				<polygon fill="url(#SVGID_6_)" points="322.14,120.579 322.916,120.12 322.728,124.918 321.95,125.377 				"/>
			</g>
			<g>
				<linearGradient id="SVGID_7_" gradientUnits="userSpaceOnUse" x1="306.8252" y1="115.9282" x2="322.916" y2="115.9282">
					<stop  offset="0" style="stop-color:#F47F31"/>
					<stop  offset="0.5895" style="stop-color:#EDBB33"/>
					<stop  offset="1" style="stop-color:#E8E834"/>
				</linearGradient>
				<polygon fill="url(#SVGID_7_)" points="306.825,111.737 307.602,111.277 322.916,120.12 322.14,120.579 				"/>
			</g>
			<g>
				<linearGradient id="SVGID_8_" gradientUnits="userSpaceOnUse" x1="306.6357" y1="118.5571" x2="322.1396" y2="118.5571">
					<stop  offset="0" style="stop-color:#F47F31"/>
					<stop  offset="0.5895" style="stop-color:#EDBB33"/>
					<stop  offset="1" style="stop-color:#E8E834"/>
				</linearGradient>
				<polygon fill="url(#SVGID_8_)" points="322.14,120.579 321.95,125.377 306.636,116.535 306.825,111.737 				"/>
			</g>
		</g>
		<g enable-background="new    ">
			<g>
				<linearGradient id="SVGID_9_" gradientUnits="userSpaceOnUse" x1="354.5645" y1="143.9277" x2="354.5645" y2="138.6709">
					<stop  offset="0" style="stop-color:#F47F31"/>
					<stop  offset="0.5895" style="stop-color:#EDBB33"/>
					<stop  offset="1" style="stop-color:#E8E834"/>
				</linearGradient>
				<polygon fill="url(#SVGID_9_)" points="354.271,139.13 355.048,138.671 354.858,143.469 354.081,143.928 				"/>
			</g>
			<g>
				<linearGradient id="SVGID_10_" gradientUnits="userSpaceOnUse" x1="328.5098" y1="131.4639" x2="355.0479" y2="131.4639">
					<stop  offset="0" style="stop-color:#FF9D5A"/>
					<stop  offset="0.6555" style="stop-color:#FFD95F"/>
					<stop  offset="1" style="stop-color:#FFFB61"/>
				</linearGradient>
				<polygon fill="url(#SVGID_10_)" points="328.51,124.257 329.286,123.798 355.048,138.671 354.271,139.13 				"/>
			</g>
			<g>
				<linearGradient id="SVGID_11_" gradientUnits="userSpaceOnUse" x1="328.3203" y1="134.0923" x2="354.2705" y2="134.0923">
					<stop  offset="0" style="stop-color:#F47F31"/>
					<stop  offset="0.5895" style="stop-color:#EDBB33"/>
					<stop  offset="1" style="stop-color:#E8E834"/>
				</linearGradient>
				<polygon fill="url(#SVGID_11_)" points="354.271,139.13 354.081,143.928 328.32,129.055 328.51,124.257 				"/>
			</g>
		</g>
		<g enable-background="new    ">
			<g>
				<linearGradient id="SVGID_12_" gradientUnits="userSpaceOnUse" x1="368.0625" y1="135.1211" x2="368.0625" y2="129.8633">
					<stop  offset="0" style="stop-color:#F47F31"/>
					<stop  offset="0.5895" style="stop-color:#EDBB33"/>
					<stop  offset="1" style="stop-color:#E8E834"/>
				</linearGradient>
				<polygon fill="url(#SVGID_12_)" points="367.769,130.322 368.546,129.863 368.356,134.662 367.58,135.121 				"/>
			</g>
			<g>
				<linearGradient id="SVGID_13_" gradientUnits="userSpaceOnUse" x1="307.4648" y1="112.6846" x2="368.5459" y2="112.6846">
					<stop  offset="0" style="stop-color:#FF9D5A"/>
					<stop  offset="0.6555" style="stop-color:#FFD95F"/>
					<stop  offset="1" style="stop-color:#FFFB61"/>
				</linearGradient>
				<polygon fill="url(#SVGID_13_)" points="307.465,95.506 308.242,95.047 368.546,129.863 367.769,130.322 				"/>
			</g>
			<g>
				<linearGradient id="SVGID_14_" gradientUnits="userSpaceOnUse" x1="307.2754" y1="115.3135" x2="367.7686" y2="115.3135">
					<stop  offset="0" style="stop-color:#F47F31"/>
					<stop  offset="0.5895" style="stop-color:#EDBB33"/>
					<stop  offset="1" style="stop-color:#E8E834"/>
				</linearGradient>
				<polygon fill="url(#SVGID_14_)" points="367.769,130.322 367.58,135.121 307.275,100.304 307.465,95.506 				"/>
			</g>
		</g>
		<g enable-background="new    ">
			<g>
				<linearGradient id="SVGID_15_" gradientUnits="userSpaceOnUse" x1="403.5938" y1="172.2354" x2="403.5938" y2="166.9775">
					<stop  offset="0" style="stop-color:#F47F31"/>
					<stop  offset="0.5895" style="stop-color:#EDBB33"/>
					<stop  offset="1" style="stop-color:#E8E834"/>
				</linearGradient>
				<polygon fill="url(#SVGID_15_)" points="403.3,167.438 404.077,166.978 403.888,171.776 403.11,172.235 				"/>
			</g>
			<g>
				<linearGradient id="SVGID_16_" gradientUnits="userSpaceOnUse" x1="377.5313" y1="159.769" x2="404.0771" y2="159.769">
					<stop  offset="0" style="stop-color:#FF9D5A"/>
					<stop  offset="0.6555" style="stop-color:#FFD95F"/>
					<stop  offset="1" style="stop-color:#FFFB61"/>
				</linearGradient>
				<polygon fill="url(#SVGID_16_)" points="377.531,152.56 378.309,152.101 404.077,166.978 403.3,167.438 				"/>
			</g>
			<g>
				<linearGradient id="SVGID_17_" gradientUnits="userSpaceOnUse" x1="377.3418" y1="162.3975" x2="403.2998" y2="162.3975">
					<stop  offset="0" style="stop-color:#F47F31"/>
					<stop  offset="0.5895" style="stop-color:#EDBB33"/>
					<stop  offset="1" style="stop-color:#E8E834"/>
				</linearGradient>
				<polygon fill="url(#SVGID_17_)" points="403.3,167.438 403.11,172.235 377.342,157.357 377.531,152.56 				"/>
			</g>
		</g>
		<g enable-background="new    ">
			<g>
				<linearGradient id="SVGID_18_" gradientUnits="userSpaceOnUse" x1="422.959" y1="166.8154" x2="422.959" y2="161.5576">
					<stop  offset="0" style="stop-color:#F47F31"/>
					<stop  offset="0.5895" style="stop-color:#EDBB33"/>
					<stop  offset="1" style="stop-color:#E8E834"/>
				</linearGradient>
				<polygon fill="url(#SVGID_18_)" points="422.665,162.017 423.442,161.558 423.253,166.356 422.476,166.815 				"/>
			</g>
			<g>
				<linearGradient id="SVGID_19_" gradientUnits="userSpaceOnUse" x1="371.9561" y1="147.1489" x2="423.4424" y2="147.1489">
					<stop  offset="0" style="stop-color:#FF9D5A"/>
					<stop  offset="0.6555" style="stop-color:#FFD95F"/>
					<stop  offset="1" style="stop-color:#FFFB61"/>
				</linearGradient>
				<polygon fill="url(#SVGID_19_)" points="371.956,132.74 372.733,132.281 423.442,161.558 422.665,162.017 				"/>
			</g>
			<g>
				<linearGradient id="SVGID_20_" gradientUnits="userSpaceOnUse" x1="371.7676" y1="149.7778" x2="422.665" y2="149.7778">
					<stop  offset="0" style="stop-color:#F47F31"/>
					<stop  offset="0.5895" style="stop-color:#EDBB33"/>
					<stop  offset="1" style="stop-color:#E8E834"/>
				</linearGradient>
				<polygon fill="url(#SVGID_20_)" points="422.665,162.017 422.476,166.815 371.768,137.538 371.956,132.74 				"/>
			</g>
		</g>
		<g enable-background="new    ">
			<g>
				<linearGradient id="SVGID_21_" gradientUnits="userSpaceOnUse" x1="407.5586" y1="141.3232" x2="407.5586" y2="136.0664">
					<stop  offset="0" style="stop-color:#F47F31"/>
					<stop  offset="0.5895" style="stop-color:#EDBB33"/>
					<stop  offset="1" style="stop-color:#E8E834"/>
				</linearGradient>
				<polygon fill="url(#SVGID_21_)" points="407.266,136.525 408.042,136.066 407.854,140.864 407.076,141.323 				"/>
			</g>
			<g>
				<linearGradient id="SVGID_22_" gradientUnits="userSpaceOnUse" x1="308.1045" y1="107.6709" x2="408.042" y2="107.6709">
					<stop  offset="0" style="stop-color:#FF9D5A"/>
					<stop  offset="0.6555" style="stop-color:#FFD95F"/>
					<stop  offset="1" style="stop-color:#FFFB61"/>
				</linearGradient>
				<polygon fill="url(#SVGID_22_)" points="308.104,79.275 308.882,78.816 408.042,136.066 407.266,136.525 				"/>
			</g>
			<g>
				<linearGradient id="SVGID_23_" gradientUnits="userSpaceOnUse" x1="307.915" y1="110.2993" x2="407.2656" y2="110.2993">
					<stop  offset="0" style="stop-color:#F47F31"/>
					<stop  offset="0.5895" style="stop-color:#EDBB33"/>
					<stop  offset="1" style="stop-color:#E8E834"/>
				</linearGradient>
				<polygon fill="url(#SVGID_23_)" points="407.266,136.525 407.076,141.323 307.915,84.073 308.104,79.275 				"/>
			</g>
		</g>
		<g enable-background="new    ">
			<g>
				<linearGradient id="SVGID_24_" gradientUnits="userSpaceOnUse" x1="340.8584" y1="86.2217" x2="340.8584" y2="80.9561">
					<stop  offset="0" style="stop-color:#8181EA"/>
					<stop  offset="1" style="stop-color:#80BAFF"/>
				</linearGradient>
				<polygon fill="url(#SVGID_24_)" points="340.564,81.416 341.342,80.956 341.152,85.763 340.375,86.222 				"/>
			</g>
			<g>
				<linearGradient id="SVGID_25_" gradientUnits="userSpaceOnUse" x1="308.7441" y1="72.0005" x2="341.3418" y2="72.0005">
					<stop  offset="0" style="stop-color:#80BAFF"/>
					<stop  offset="1" style="stop-color:#8181EA"/>
				</linearGradient>
				<polygon fill="url(#SVGID_25_)" points="308.744,63.044 309.521,62.585 341.342,80.956 340.564,81.416 				"/>
			</g>
			<g>
				<linearGradient id="SVGID_26_" gradientUnits="userSpaceOnUse" x1="308.5547" y1="74.6328" x2="340.5645" y2="74.6328">
					<stop  offset="0" style="stop-color:#3C76DD"/>
					<stop  offset="1" style="stop-color:#605DC6"/>
				</linearGradient>
				<polygon fill="url(#SVGID_26_)" points="340.564,81.416 340.375,86.222 308.555,67.851 308.744,63.044 				"/>
			</g>
		</g>
		<g enable-background="new    ">
			<g>
				<linearGradient id="SVGID_27_" gradientUnits="userSpaceOnUse" x1="401.1484" y1="121.0303" x2="401.1484" y2="115.7646">
					<stop  offset="0" style="stop-color:#F47F31"/>
					<stop  offset="0.5895" style="stop-color:#EDBB33"/>
					<stop  offset="1" style="stop-color:#E8E834"/>
				</linearGradient>
				<polygon fill="url(#SVGID_27_)" points="400.854,116.224 401.632,115.765 401.442,120.571 400.665,121.03 				"/>
			</g>
			<g>
				<linearGradient id="SVGID_28_" gradientUnits="userSpaceOnUse" x1="347.9414" y1="100.7192" x2="401.6318" y2="100.7192">
					<stop  offset="0" style="stop-color:#FF9D5A"/>
					<stop  offset="0.6555" style="stop-color:#FFD95F"/>
					<stop  offset="1" style="stop-color:#FFFB61"/>
				</linearGradient>
				<polygon fill="url(#SVGID_28_)" points="347.941,85.675 348.719,85.215 401.632,115.765 400.854,116.224 				"/>
			</g>
			<g>
				<linearGradient id="SVGID_29_" gradientUnits="userSpaceOnUse" x1="347.752" y1="103.3525" x2="400.8545" y2="103.3525">
					<stop  offset="0" style="stop-color:#F47F31"/>
					<stop  offset="0.5895" style="stop-color:#EDBB33"/>
					<stop  offset="1" style="stop-color:#E8E834"/>
				</linearGradient>
				<polygon fill="url(#SVGID_29_)" points="400.854,116.224 400.665,121.03 347.752,90.48 347.941,85.675 				"/>
			</g>
		</g>
		<g enable-background="new    ">
			<g>
				<linearGradient id="SVGID_30_" gradientUnits="userSpaceOnUse" x1="359.5879" y1="80.4346" x2="359.5879" y2="75.1777">
					<stop  offset="0" style="stop-color:#F47F31"/>
					<stop  offset="0.5895" style="stop-color:#EDBB33"/>
					<stop  offset="1" style="stop-color:#E8E834"/>
				</linearGradient>
				<polygon fill="url(#SVGID_30_)" points="359.294,75.637 360.07,75.178 359.882,79.976 359.104,80.435 				"/>
			</g>
			<g>
				<linearGradient id="SVGID_31_" gradientUnits="userSpaceOnUse" x1="309.3838" y1="60.9995" x2="360.0703" y2="60.9995">
					<stop  offset="0" style="stop-color:#FF9D5A"/>
					<stop  offset="0.6555" style="stop-color:#FFD95F"/>
					<stop  offset="1" style="stop-color:#FFFB61"/>
				</linearGradient>
				<polygon fill="url(#SVGID_31_)" points="309.384,46.821 310.161,46.362 360.07,75.178 359.294,75.637 				"/>
			</g>
			<g>
				<linearGradient id="SVGID_32_" gradientUnits="userSpaceOnUse" x1="309.1953" y1="63.6279" x2="359.2939" y2="63.6279">
					<stop  offset="0" style="stop-color:#F47F31"/>
					<stop  offset="0.5895" style="stop-color:#EDBB33"/>
					<stop  offset="1" style="stop-color:#E8E834"/>
				</linearGradient>
				<polygon fill="url(#SVGID_32_)" points="359.294,75.637 359.104,80.435 309.195,51.619 309.384,46.821 				"/>
			</g>
		</g>
		<g enable-background="new    ">
			<g>
				<linearGradient id="SVGID_33_" gradientUnits="userSpaceOnUse" x1="414.6914" y1="112.249" x2="414.6914" y2="106.9912">
					<stop  offset="0" style="stop-color:#F47F31"/>
					<stop  offset="0.5895" style="stop-color:#EDBB33"/>
					<stop  offset="1" style="stop-color:#E8E834"/>
				</linearGradient>
				<polygon fill="url(#SVGID_33_)" points="414.396,107.451 415.174,106.991 414.984,111.79 414.208,112.249 				"/>
			</g>
			<g>
				<linearGradient id="SVGID_34_" gradientUnits="userSpaceOnUse" x1="364.4951" y1="92.8159" x2="415.1738" y2="92.8159">
					<stop  offset="0" style="stop-color:#FF9D5A"/>
					<stop  offset="0.6555" style="stop-color:#FFD95F"/>
					<stop  offset="1" style="stop-color:#FFFB61"/>
				</linearGradient>
				<polygon fill="url(#SVGID_34_)" points="364.495,78.64 365.271,78.181 415.174,106.991 414.396,107.451 				"/>
			</g>
			<g>
				<linearGradient id="SVGID_35_" gradientUnits="userSpaceOnUse" x1="364.3057" y1="95.4443" x2="414.3965" y2="95.4443">
					<stop  offset="0" style="stop-color:#F47F31"/>
					<stop  offset="0.5895" style="stop-color:#EDBB33"/>
					<stop  offset="1" style="stop-color:#E8E834"/>
				</linearGradient>
				<polygon fill="url(#SVGID_35_)" points="414.396,107.451 414.208,112.249 364.306,83.438 364.495,78.64 				"/>
			</g>
		</g>
		<g enable-background="new    ">
			<g>
				<linearGradient id="SVGID_36_" gradientUnits="userSpaceOnUse" x1="401.377" y1="87.9619" x2="401.377" y2="82.7051">
					<stop  offset="0" style="stop-color:#F47F31"/>
					<stop  offset="0.5895" style="stop-color:#EDBB33"/>
					<stop  offset="1" style="stop-color:#E8E834"/>
				</linearGradient>
				<polygon fill="url(#SVGID_36_)" points="401.083,83.164 401.86,82.705 401.672,87.503 400.895,87.962 				"/>
			</g>
			<g>
				<linearGradient id="SVGID_37_" gradientUnits="userSpaceOnUse" x1="310.0234" y1="56.6479" x2="401.8604" y2="56.6479">
					<stop  offset="0" style="stop-color:#FF9D5A"/>
					<stop  offset="0.6555" style="stop-color:#FFD95F"/>
					<stop  offset="1" style="stop-color:#FFFB61"/>
				</linearGradient>
				<polygon fill="url(#SVGID_37_)" points="310.023,30.591 310.801,30.132 401.86,82.705 401.083,83.164 				"/>
			</g>
			<g>
				<linearGradient id="SVGID_38_" gradientUnits="userSpaceOnUse" x1="309.835" y1="59.2764" x2="401.083" y2="59.2764">
					<stop  offset="0" style="stop-color:#F47F31"/>
					<stop  offset="0.5895" style="stop-color:#EDBB33"/>
					<stop  offset="1" style="stop-color:#E8E834"/>
				</linearGradient>
				<polygon fill="url(#SVGID_38_)" points="401.083,83.164 400.895,87.962 309.835,35.389 310.023,30.591 				"/>
			</g>
		</g>
		<g enable-background="new    ">
			<g>
				<linearGradient id="SVGID_39_" gradientUnits="userSpaceOnUse" x1="427.1719" y1="152.6475" x2="427.1719" y2="147.3896">
					<stop  offset="0" style="stop-color:#8181EA"/>
					<stop  offset="1" style="stop-color:#80BAFF"/>
				</linearGradient>
				<polygon fill="url(#SVGID_39_)" points="426.879,147.849 427.655,147.39 427.467,152.188 426.689,152.647 				"/>
			</g>
			<g>
				<linearGradient id="SVGID_40_" gradientUnits="userSpaceOnUse" x1="412.3555" y1="143.4268" x2="427.6553" y2="143.4268">
					<stop  offset="0" style="stop-color:#80BAFF"/>
					<stop  offset="1" style="stop-color:#8181EA"/>
				</linearGradient>
				<polygon fill="url(#SVGID_40_)" points="412.355,139.464 413.133,139.005 427.655,147.39 426.879,147.849 				"/>
			</g>
			<g>
				<linearGradient id="SVGID_41_" gradientUnits="userSpaceOnUse" x1="412.166" y1="146.0557" x2="426.8789" y2="146.0557">
					<stop  offset="0" style="stop-color:#3C76DD"/>
					<stop  offset="1" style="stop-color:#605DC6"/>
				</linearGradient>
				<polygon fill="url(#SVGID_41_)" points="426.879,147.849 426.689,152.647 412.166,144.263 412.355,139.464 				"/>
			</g>
		</g>
		<g enable-background="new    ">
			<g>
				<linearGradient id="SVGID_42_" gradientUnits="userSpaceOnUse" x1="438.04" y1="125.7295" x2="438.04" y2="120.4727">
					<stop  offset="0" style="stop-color:#8181EA"/>
					<stop  offset="1" style="stop-color:#80BAFF"/>
				</linearGradient>
				<polygon fill="url(#SVGID_42_)" points="437.746,120.932 438.523,120.473 438.334,125.271 437.557,125.729 				"/>
			</g>
			<g>
				<linearGradient id="SVGID_43_" gradientUnits="userSpaceOnUse" x1="421.6846" y1="116.0654" x2="438.5234" y2="116.0654">
					<stop  offset="0" style="stop-color:#80BAFF"/>
					<stop  offset="1" style="stop-color:#8181EA"/>
				</linearGradient>
				<polygon fill="url(#SVGID_43_)" points="421.685,111.658 422.461,111.199 438.523,120.473 437.746,120.932 				"/>
			</g>
			<g>
				<linearGradient id="SVGID_44_" gradientUnits="userSpaceOnUse" x1="421.4951" y1="118.6938" x2="437.7461" y2="118.6938">
					<stop  offset="0" style="stop-color:#3C76DD"/>
					<stop  offset="1" style="stop-color:#605DC6"/>
				</linearGradient>
				<polygon fill="url(#SVGID_44_)" points="437.746,120.932 437.557,125.729 421.495,116.456 421.685,111.658 				"/>
			</g>
		</g>
		<g enable-background="new    ">
			<g>
				<linearGradient id="SVGID_45_" gradientUnits="userSpaceOnUse" x1="369.627" y1="53.0391" x2="369.627" y2="47.7734">
					<stop  offset="0" style="stop-color:#8181EA"/>
					<stop  offset="1" style="stop-color:#80BAFF"/>
				</linearGradient>
				<polygon fill="url(#SVGID_45_)" points="369.333,48.232 370.11,47.773 369.921,52.58 369.144,53.039 				"/>
			</g>
			<g>
				<linearGradient id="SVGID_46_" gradientUnits="userSpaceOnUse" x1="310.6641" y1="31.0664" x2="370.1104" y2="31.0664">
					<stop  offset="0" style="stop-color:#80BAFF"/>
					<stop  offset="1" style="stop-color:#8181EA"/>
				</linearGradient>
				<polygon fill="url(#SVGID_46_)" points="310.664,14.359 311.441,13.9 370.11,47.773 369.333,48.232 				"/>
			</g>
			<g>
				<linearGradient id="SVGID_47_" gradientUnits="userSpaceOnUse" x1="310.4746" y1="33.6992" x2="369.333" y2="33.6992">
					<stop  offset="0" style="stop-color:#3C76DD"/>
					<stop  offset="1" style="stop-color:#605DC6"/>
				</linearGradient>
				<polygon fill="url(#SVGID_47_)" points="369.333,48.232 369.144,53.039 310.475,19.166 310.664,14.359 				"/>
			</g>
		</g>
		<g enable-background="new    ">
			<g>
				<linearGradient id="SVGID_48_" gradientUnits="userSpaceOnUse" x1="396.2979" y1="68.4375" x2="396.2979" y2="63.1719">
					<stop  offset="0" style="stop-color:#F47F31"/>
					<stop  offset="0.5895" style="stop-color:#EDBB33"/>
					<stop  offset="1" style="stop-color:#E8E834"/>
				</linearGradient>
				<polygon fill="url(#SVGID_48_)" points="396.004,63.631 396.781,63.172 396.592,67.979 395.814,68.438 				"/>
			</g>
			<g>
				<linearGradient id="SVGID_49_" gradientUnits="userSpaceOnUse" x1="372.832" y1="56.7124" x2="396.7813" y2="56.7124">
					<stop  offset="0" style="stop-color:#FF9D5A"/>
					<stop  offset="0.6555" style="stop-color:#FFD95F"/>
					<stop  offset="1" style="stop-color:#FFFB61"/>
				</linearGradient>
				<polygon fill="url(#SVGID_49_)" points="372.832,50.253 373.609,49.794 396.781,63.172 396.004,63.631 				"/>
			</g>
			<g>
				<linearGradient id="SVGID_50_" gradientUnits="userSpaceOnUse" x1="372.6426" y1="59.3452" x2="396.0039" y2="59.3452">
					<stop  offset="0" style="stop-color:#F47F31"/>
					<stop  offset="0.5895" style="stop-color:#EDBB33"/>
					<stop  offset="1" style="stop-color:#E8E834"/>
				</linearGradient>
				<polygon fill="url(#SVGID_50_)" points="396.004,63.631 395.814,68.438 372.643,55.06 372.832,50.253 				"/>
			</g>
		</g>
	</g>
	<g>
		<g enable-background="new    ">
			<g>
				<polygon fill="#B68504" points="213.555,87.751 216.4,86.128 227.463,89.373 224.618,90.997 				"/>
			</g>
			<g>
				<polygon fill="#B68504" points="274.304,171.983 277.148,170.359 275.459,182.383 272.614,184.007 				"/>
			</g>
			<path fill="#B68504" d="M280.863,161.098c0.391-0.184,0.774-0.378,1.148-0.591c0.002-0.001,0.003-0.002,0.005-0.003l2.845-1.623
				c-0.375,0.214-0.762,0.409-1.154,0.593c-0.125,0.059-0.253,0.11-0.38,0.166c-0.273,0.119-0.549,0.234-0.83,0.339
				c-0.114,0.043-0.23,0.082-0.346,0.122c-0.624,0.218-1.265,0.401-1.923,0.547c-0.11,0.024-0.222,0.045-0.332,0.066
				c-0.462,0.093-0.931,0.169-1.408,0.226c-0.098,0.012-0.192,0.027-0.291,0.038c-0.476,0.049-0.959,0.081-1.449,0.095
				c-0.13,0.004-0.263-0.001-0.393,0c-0.329,0.002-0.659,0.002-0.994-0.012c-0.19-0.008-0.384-0.023-0.576-0.037
				c-0.264-0.018-0.527-0.035-0.795-0.063c-0.222-0.022-0.446-0.053-0.67-0.082c-0.219-0.029-0.438-0.058-0.658-0.094
				c-0.24-0.039-0.482-0.085-0.726-0.132c-0.204-0.039-0.408-0.077-0.614-0.122c-0.266-0.058-0.533-0.125-0.802-0.192
				c-0.18-0.045-0.358-0.086-0.54-0.136c-0.318-0.087-0.641-0.185-0.963-0.285c-0.129-0.04-0.256-0.075-0.386-0.117
				c-0.45-0.146-0.904-0.306-1.362-0.479c-0.091-0.035-0.184-0.075-0.275-0.111c-0.364-0.142-0.729-0.288-1.098-0.446
				c-0.161-0.069-0.323-0.146-0.485-0.218c-0.372-0.167-0.745-0.334-1.12-0.518c-0.805-0.394-1.604-0.819-2.395-1.275
				c-0.947-0.548-1.882-1.146-2.806-1.777c-0.106-0.072-0.212-0.146-0.318-0.221c-0.851-0.593-1.69-1.222-2.518-1.881
				c-0.12-0.096-0.239-0.191-0.358-0.288c-0.817-0.665-1.621-1.36-2.41-2.085c-0.129-0.118-0.258-0.237-0.385-0.357
				c-0.79-0.737-1.565-1.501-2.323-2.294c-0.114-0.119-0.226-0.242-0.339-0.362c-0.756-0.805-1.499-1.63-2.22-2.484
				c-0.035-0.042-0.072-0.082-0.108-0.124c-0.685-0.815-1.344-1.662-1.993-2.518c-0.318-0.419-0.626-0.846-0.935-1.273
				c-0.431-0.594-0.855-1.192-1.268-1.803c-0.244-0.363-0.486-0.729-0.725-1.097c-0.433-0.668-0.852-1.347-1.263-2.031
				c-0.21-0.351-0.425-0.698-0.629-1.053c-0.452-0.786-0.884-1.585-1.306-2.388c-0.142-0.271-0.293-0.535-0.432-0.807
				c-0.522-1.029-1.017-2.072-1.485-3.122c-0.068-0.153-0.138-0.307-0.205-0.461c-0.454-1.039-0.881-2.087-1.279-3.141
				c-0.05-0.134-0.102-0.268-0.151-0.401c-0.396-1.072-0.763-2.151-1.098-3.232c-0.036-0.116-0.074-0.231-0.108-0.348
				c-0.34-1.118-0.645-2.239-0.914-3.361c-0.018-0.073-0.037-0.146-0.055-0.219c-0.278-1.181-0.519-2.361-0.716-3.539
				c-0.006-0.038-0.011-0.076-0.018-0.114c-0.188-1.139-0.334-2.274-0.442-3.404c-0.01-0.104-0.019-0.209-0.028-0.314
				c-0.102-1.146-0.167-2.288-0.183-3.419c-0.009-0.65-0.002-1.288,0.019-1.916c0.003-0.086,0.01-0.169,0.013-0.255
				c0.02-0.493,0.048-0.979,0.085-1.457c0.015-0.19,0.033-0.377,0.051-0.565c0.035-0.379,0.075-0.752,0.122-1.121
				c0.024-0.2,0.05-0.4,0.079-0.598c0.051-0.358,0.11-0.709,0.172-1.059c0.035-0.194,0.066-0.391,0.104-0.582
				c0.065-0.333,0.142-0.658,0.217-0.982c0.049-0.208,0.093-0.42,0.145-0.624c0.074-0.291,0.16-0.572,0.242-0.855
				c0.068-0.236,0.133-0.478,0.206-0.709c0.058-0.18,0.125-0.351,0.186-0.526c0.124-0.361,0.25-0.721,0.388-1.068
				c0.065-0.165,0.138-0.322,0.206-0.484c0.175-0.415,0.359-0.822,0.554-1.217c0.077-0.155,0.155-0.31,0.235-0.462
				c0.334-0.639,0.689-1.252,1.073-1.831c0.07-0.105,0.146-0.205,0.218-0.309c0.286-0.414,0.586-0.812,0.897-1.193
				c0.096-0.117,0.19-0.237,0.289-0.352c0.385-0.448,0.785-0.877,1.205-1.275c0.062-0.059,0.126-0.11,0.188-0.167
				c0.372-0.344,0.76-0.666,1.158-0.971c0.121-0.093,0.244-0.186,0.367-0.275c0.467-0.337,0.944-0.658,1.442-0.942l-2.845,1.624
				c-0.498,0.284-0.975,0.604-1.441,0.941c-0.125,0.09-0.247,0.183-0.37,0.276c-0.398,0.306-0.785,0.628-1.159,0.972
				c-0.061,0.057-0.125,0.107-0.186,0.165c-0.42,0.398-0.82,0.827-1.205,1.276c-0.1,0.114-0.194,0.234-0.29,0.352
				c-0.312,0.382-0.61,0.778-0.896,1.191c-0.053,0.076-0.112,0.142-0.164,0.218c-0.02,0.029-0.035,0.063-0.055,0.094
				c-0.384,0.579-0.74,1.192-1.074,1.831c-0.032,0.063-0.073,0.116-0.104,0.179c-0.046,0.09-0.083,0.189-0.128,0.28
				c-0.196,0.396-0.381,0.805-0.558,1.223c-0.046,0.109-0.101,0.209-0.146,0.319c-0.021,0.052-0.037,0.107-0.058,0.159
				c-0.139,0.349-0.265,0.71-0.39,1.073c-0.051,0.146-0.109,0.285-0.157,0.434c-0.01,0.029-0.018,0.061-0.026,0.09
				c-0.074,0.231-0.138,0.473-0.206,0.709c-0.072,0.247-0.15,0.488-0.217,0.741c-0.01,0.037-0.017,0.076-0.026,0.114
				c-0.052,0.203-0.095,0.414-0.144,0.62c-0.062,0.265-0.129,0.524-0.184,0.795c-0.013,0.063-0.021,0.13-0.034,0.193
				c-0.038,0.189-0.069,0.385-0.104,0.578c-0.042,0.236-0.089,0.467-0.126,0.708c-0.019,0.115-0.03,0.235-0.047,0.352
				c-0.028,0.198-0.054,0.397-0.079,0.599c-0.021,0.173-0.049,0.341-0.068,0.516c-0.021,0.199-0.035,0.404-0.054,0.605
				c-0.018,0.188-0.036,0.375-0.051,0.565c-0.008,0.101-0.02,0.197-0.026,0.299c-0.026,0.383-0.043,0.774-0.059,1.166
				c-0.003,0.082-0.009,0.162-0.012,0.245c-0.001,0.019-0.003,0.037-0.003,0.056c-0.016,0.49-0.021,0.987-0.02,1.491
				c0.001,0.123,0.002,0.247,0.004,0.371c0.005,0.38,0.015,0.761,0.03,1.144c0.02,0.506,0.048,1.014,0.085,1.522
				c0.019,0.25,0.045,0.502,0.067,0.752c0.009,0.105,0.018,0.21,0.028,0.315c0.015,0.156,0.025,0.313,0.041,0.469
				c0.055,0.513,0.117,1.027,0.188,1.543c0.063,0.463,0.137,0.928,0.214,1.393c0.006,0.038,0.011,0.076,0.018,0.114
				c0.005,0.03,0.009,0.06,0.014,0.09c0.091,0.536,0.19,1.073,0.298,1.611c0.111,0.555,0.231,1.109,0.36,1.664
				c0.014,0.059,0.03,0.117,0.044,0.175c0.017,0.072,0.036,0.144,0.054,0.215c0.104,0.432,0.208,0.863,0.321,1.295
				c0.151,0.571,0.312,1.142,0.48,1.711c0.036,0.12,0.076,0.238,0.112,0.358c0.035,0.116,0.073,0.231,0.108,0.348
				c0.105,0.34,0.207,0.679,0.318,1.018c0.189,0.575,0.388,1.149,0.595,1.723c0.06,0.164,0.124,0.327,0.186,0.491
				c0.05,0.135,0.101,0.268,0.151,0.402c0.105,0.28,0.207,0.562,0.317,0.842c0.232,0.591,0.475,1.181,0.725,1.767
				c0.077,0.179,0.159,0.355,0.237,0.534c0.067,0.152,0.136,0.305,0.204,0.458c0.124,0.278,0.243,0.558,0.371,0.835
				c0.332,0.717,0.677,1.429,1.033,2.135c0.026,0.052,0.056,0.102,0.082,0.152c0.138,0.272,0.29,0.538,0.433,0.809
				c0.342,0.651,0.679,1.305,1.041,1.945c0.084,0.148,0.178,0.292,0.263,0.439c0.205,0.356,0.419,0.704,0.63,1.056
				c0.411,0.685,0.829,1.361,1.262,2.03c0.239,0.368,0.48,0.733,0.726,1.097c0.176,0.26,0.341,0.528,0.521,0.786
				c0.24,0.347,0.499,0.675,0.746,1.016c0.309,0.428,0.617,0.855,0.935,1.274c0.136,0.178,0.262,0.365,0.397,0.541
				c0.508,0.654,1.025,1.297,1.554,1.926c0.014,0.017,0.028,0.032,0.042,0.05c0.037,0.043,0.075,0.084,0.111,0.128
				c0.437,0.517,0.878,1.028,1.328,1.527c0.292,0.325,0.593,0.638,0.891,0.955c0.112,0.12,0.224,0.242,0.337,0.361
				c0.08,0.083,0.156,0.171,0.236,0.253c0.481,0.498,0.97,0.985,1.465,1.462c0.205,0.197,0.415,0.386,0.622,0.579
				c0.128,0.12,0.256,0.239,0.385,0.357c0.15,0.138,0.297,0.281,0.448,0.417c0.479,0.43,0.963,0.849,1.451,1.256
				c0.169,0.141,0.341,0.272,0.511,0.411c0.119,0.097,0.239,0.192,0.359,0.289c0.184,0.146,0.364,0.299,0.55,0.441
				c0.454,0.354,0.913,0.696,1.376,1.029c0.195,0.141,0.395,0.272,0.592,0.41c0.106,0.073,0.212,0.147,0.318,0.221
				c0.153,0.104,0.305,0.215,0.458,0.317c0.434,0.289,0.869,0.568,1.308,0.839c0.346,0.213,0.691,0.42,1.04,0.62
				c0.093,0.054,0.185,0.106,0.278,0.159c0.429,0.243,0.859,0.478,1.293,0.703c0.273,0.142,0.548,0.279,0.822,0.414
				c0.16,0.078,0.319,0.154,0.479,0.23c0.214,0.101,0.426,0.19,0.639,0.286c0.162,0.072,0.326,0.148,0.488,0.219
				c0.049,0.021,0.098,0.045,0.146,0.065c0.315,0.134,0.628,0.255,0.94,0.377c0.096,0.037,0.192,0.079,0.287,0.115
				c0.014,0.005,0.026,0.011,0.04,0.016c0.424,0.16,0.845,0.309,1.264,0.445c0.019,0.006,0.037,0.011,0.056,0.017
				c0.133,0.044,0.264,0.079,0.396,0.12c0.273,0.085,0.548,0.174,0.819,0.249c0.045,0.013,0.089,0.021,0.135,0.034
				c0.182,0.049,0.36,0.091,0.541,0.136c0.203,0.051,0.407,0.108,0.609,0.154c0.063,0.015,0.126,0.023,0.19,0.037
				c0.206,0.046,0.41,0.083,0.615,0.123c0.17,0.032,0.343,0.072,0.512,0.102c0.072,0.012,0.143,0.019,0.214,0.03
				c0.221,0.035,0.438,0.064,0.657,0.093c0.155,0.021,0.313,0.05,0.467,0.066c0.068,0.008,0.135,0.01,0.203,0.017
				c0.267,0.027,0.53,0.046,0.793,0.063c0.144,0.01,0.29,0.028,0.434,0.035c0.049,0.002,0.097-0.001,0.146,0.001
				c0.334,0.014,0.663,0.015,0.991,0.012c0.113-0.001,0.229,0.007,0.34,0.004c0.019,0,0.036-0.003,0.055-0.003
				c0.491-0.014,0.974-0.046,1.45-0.096c0.03-0.003,0.062-0.003,0.091-0.006c0.068-0.007,0.133-0.023,0.2-0.032
				c0.477-0.057,0.944-0.132,1.405-0.224c0.074-0.016,0.153-0.021,0.227-0.037c0.038-0.008,0.072-0.022,0.109-0.03
				c0.657-0.146,1.297-0.33,1.92-0.547c0.052-0.018,0.108-0.027,0.16-0.046c0.064-0.022,0.125-0.053,0.188-0.077
				c0.28-0.104,0.555-0.219,0.826-0.338C280.607,161.208,280.737,161.156,280.863,161.098z"/>
			<g>
				<polygon fill="#B68504" points="234.635,63.068 237.48,61.445 246.745,73.53 243.9,75.154 				"/>
			</g>
			<g>
				<polygon fill="#B68504" points="302.477,173.632 305.322,172.009 290.122,182.463 287.276,184.087 				"/>
			</g>
			<g>
				<polygon fill="#B68504" points="295.814,159.76 298.659,158.136 305.322,172.009 302.477,173.632 				"/>
			</g>
			<g>
				<defs>
					<path id="SVGID_51_" d="M243.9,75.154l2.845-1.624c1.197-0.086,2.437-0.075,3.708,0.028l-2.846,1.623
						C246.336,75.079,245.098,75.067,243.9,75.154z"/>
				</defs>
				<use xlink:href="#SVGID_51_"  overflow="visible" fill="#B68504"/>
				<clipPath id="SVGID_52_">
					<use xlink:href="#SVGID_51_"  overflow="visible"/>
				</clipPath>
				<path clip-path="url(#SVGID_52_)" fill="#B68504" d="M249.596,73.502c-0.595-0.028-1.183-0.037-1.762-0.023
					c-0.366,0.009-0.729,0.025-1.089,0.052l-2.845,1.624c0.359-0.026,0.723-0.043,1.089-0.052c0.579-0.014,1.166-0.006,1.762,0.023
					c0.283,0.014,0.569,0.033,0.856,0.056l2.845-1.623C250.165,73.535,249.88,73.517,249.596,73.502z"/>
			</g>
			<g>
				<defs>
					<path id="SVGID_53_" d="M297.293,156.158l2.846-1.623c-0.432,1.274-0.925,2.471-1.479,3.601l-2.845,1.624
						C296.369,158.63,296.861,157.433,297.293,156.158z"/>
				</defs>
				<use xlink:href="#SVGID_53_"  overflow="visible" fill="#B68504"/>
				<clipPath id="SVGID_54_">
					<use xlink:href="#SVGID_53_"  overflow="visible"/>
				</clipPath>
				<path clip-path="url(#SVGID_54_)" fill="#B68504" d="M297.293,156.158c-0.192,0.569-0.397,1.123-0.614,1.662
					c-0.27,0.668-0.558,1.314-0.864,1.939l2.845-1.624c0.308-0.625,0.596-1.271,0.864-1.939c0.218-0.539,0.423-1.093,0.615-1.661
					L297.293,156.158z"/>
			</g>
			<g>
				<defs>
					<path id="SVGID_55_" d="M273.176,87.685l2.845-1.624c1.28,1.149,2.538,2.359,3.757,3.619l-2.846,1.624
						C275.714,90.043,274.456,88.834,273.176,87.685z"/>
				</defs>
				<use xlink:href="#SVGID_55_"  overflow="visible" fill="#B68504"/>
				<clipPath id="SVGID_56_">
					<use xlink:href="#SVGID_55_"  overflow="visible"/>
				</clipPath>
				<path clip-path="url(#SVGID_56_)" fill="#B68504" d="M279.76,89.661c-0.602-0.621-1.212-1.23-1.83-1.826
					c-0.629-0.605-1.267-1.197-1.909-1.774l-2.845,1.624c0.643,0.576,1.279,1.169,1.908,1.774c0.618,0.596,1.229,1.205,1.83,1.826
					c0.006,0.006,0.012,0.013,0.018,0.019l2.846-1.624C279.771,89.674,279.766,89.668,279.76,89.661z"/>
			</g>
			<g>
				<defs>
					<path id="SVGID_57_" d="M295.293,121.229l2.846-1.624c0.598,1.701,1.131,3.406,1.599,5.105l-2.845,1.624
						C296.424,124.636,295.892,122.931,295.293,121.229z"/>
				</defs>
				<use xlink:href="#SVGID_57_"  overflow="visible" fill="#B68504"/>
				<clipPath id="SVGID_58_">
					<use xlink:href="#SVGID_57_"  overflow="visible"/>
				</clipPath>
				<path clip-path="url(#SVGID_58_)" fill="#B68504" d="M299.322,123.26c-0.213-0.717-0.438-1.435-0.673-2.152
					c-0.165-0.501-0.335-1.001-0.511-1.502l-2.846,1.624c0.176,0.5,0.347,1.001,0.512,1.502c0.235,0.717,0.46,1.436,0.673,2.152
					c0.144,0.484,0.281,0.968,0.415,1.451l2.845-1.624C299.604,124.228,299.466,123.744,299.322,123.26z"/>
			</g>
			<g>
				<polygon fill="#B68504" points="271.134,73.832 273.979,72.209 276.021,86.061 273.176,87.685 				"/>
			</g>
			<g>
				<polygon fill="#B68504" points="249.297,63.148 252.143,61.524 273.979,72.209 271.134,73.832 				"/>
			</g>
			<g>
				<polygon fill="#B68504" points="308.01,133.941 310.855,132.317 311.202,157.78 308.356,159.404 				"/>
			</g>
			<g>
				<polygon fill="#B68504" points="296.893,126.335 299.737,124.711 310.855,132.317 308.01,133.941 				"/>
			</g>
			<g>
				<polygon fill="#B68504" points="276.932,91.304 279.777,89.68 288.835,86.555 285.989,88.179 				"/>
			</g>
			<g>
				<polygon fill="#B68504" points="285.989,88.179 288.835,86.555 304.514,112.116 301.669,113.739 				"/>
			</g>
			<g>
				<path fill="#FFB806" d="M297.293,156.158c-0.432,1.274-0.924,2.472-1.479,3.602l6.662,13.872l-15.2,10.455l-9.256-12.08
					c-1.207,0.081-2.445,0.069-3.717-0.023l-1.689,12.023l-21.837-10.674l-2.033-13.847c-1.289-1.154-2.538-2.359-3.756-3.63
					l-9.066,3.12l-15.68-25.551l6.376-7.5c-0.59-1.686-1.122-3.391-1.599-5.105l-11.118-7.606l-0.347-25.463l11.063,3.246
					c0.431-1.265,0.925-2.472,1.488-3.597l-6.663-13.872l15.191-10.46l9.266,12.086c1.197-0.087,2.436-0.075,3.707,0.027
					l1.689-12.033l21.837,10.684l2.042,13.853c1.28,1.149,2.538,2.358,3.756,3.619l9.058-3.125l15.68,25.561l-6.376,7.49
					c0.599,1.701,1.131,3.406,1.6,5.105l11.117,7.606l0.347,25.463L297.293,156.158z M261.445,159.652
					c17.078,8.357,30.703-1.031,30.44-20.95c-0.259-18.99-13.044-40.696-29.03-49.925c-0.785-0.453-1.581-0.878-2.38-1.269
					c-17.079-8.348-30.712,1.025-30.44,20.949c0.25,18.979,13.035,40.691,29.017,49.918
					C259.842,158.833,260.641,159.259,261.445,159.652"/>
			</g>
			<g>
				<polygon fill="#B68504" points="301.669,113.739 304.514,112.116 298.139,119.605 295.293,121.229 				"/>
			</g>
		</g>
	</g>
	<g>
		<g enable-background="new    ">
			<g>
				<polygon fill="#B68504" points="296.466,42.83 298.795,41.5 307.852,44.157 305.522,45.486 				"/>
			</g>
			<g>
				<polygon fill="#B68504" points="346.195,111.782 348.524,110.453 347.142,120.296 344.813,121.625 				"/>
			</g>
			<path fill="#B68504" d="M351.564,102.871c0.32-0.149,0.635-0.31,0.94-0.483c0.001-0.001,0.003-0.002,0.004-0.002l2.329-1.329
				c-0.308,0.175-0.623,0.335-0.944,0.485c-0.103,0.048-0.208,0.09-0.312,0.136c-0.224,0.098-0.449,0.191-0.68,0.277
				c-0.094,0.035-0.188,0.066-0.283,0.1c-0.511,0.178-1.035,0.329-1.574,0.448c-0.09,0.02-0.182,0.036-0.271,0.055
				c-0.378,0.075-0.762,0.138-1.152,0.184c-0.08,0.01-0.158,0.023-0.238,0.031c-0.39,0.04-0.785,0.067-1.187,0.078
				c-0.106,0.003-0.215-0.001-0.321,0c-0.27,0.002-0.54,0.001-0.814-0.01c-0.155-0.007-0.313-0.02-0.472-0.03
				c-0.216-0.015-0.432-0.029-0.65-0.052c-0.182-0.019-0.365-0.043-0.549-0.067c-0.179-0.024-0.357-0.048-0.538-0.077
				c-0.196-0.031-0.396-0.069-0.595-0.107c-0.167-0.032-0.333-0.063-0.502-0.101c-0.218-0.047-0.437-0.102-0.656-0.156
				c-0.147-0.037-0.294-0.071-0.442-0.112c-0.261-0.07-0.524-0.151-0.788-0.233c-0.105-0.032-0.21-0.061-0.315-0.096
				c-0.369-0.12-0.741-0.25-1.115-0.392c-0.075-0.028-0.151-0.062-0.227-0.091c-0.298-0.116-0.597-0.236-0.897-0.366
				c-0.132-0.056-0.265-0.118-0.397-0.178c-0.305-0.137-0.609-0.273-0.918-0.424c-0.658-0.321-1.313-0.671-1.959-1.044
				c-0.776-0.448-1.541-0.938-2.297-1.455c-0.087-0.06-0.174-0.12-0.261-0.181c-0.696-0.485-1.384-1-2.062-1.54
				c-0.098-0.078-0.195-0.156-0.293-0.235c-0.669-0.544-1.327-1.113-1.973-1.706c-0.106-0.097-0.211-0.195-0.315-0.293
				c-0.646-0.604-1.281-1.229-1.901-1.878c-0.094-0.098-0.185-0.198-0.277-0.297c-0.619-0.658-1.227-1.334-1.817-2.033
				c-0.029-0.034-0.06-0.067-0.088-0.102c-0.561-0.668-1.101-1.36-1.633-2.062c-0.26-0.342-0.513-0.692-0.765-1.042
				c-0.353-0.486-0.7-0.977-1.037-1.477c-0.201-0.297-0.398-0.596-0.594-0.896c-0.354-0.548-0.697-1.103-1.033-1.663
				c-0.172-0.287-0.348-0.572-0.515-0.862c-0.371-0.644-0.724-1.297-1.069-1.955c-0.115-0.221-0.24-0.438-0.354-0.66
				c-0.428-0.842-0.832-1.695-1.216-2.556c-0.056-0.125-0.112-0.251-0.167-0.376c-0.373-0.851-0.722-1.709-1.048-2.571
				c-0.041-0.11-0.083-0.22-0.124-0.329c-0.325-0.878-0.624-1.761-0.899-2.646c-0.029-0.095-0.06-0.189-0.088-0.283
				c-0.278-0.916-0.528-1.834-0.748-2.752c-0.015-0.061-0.031-0.12-0.045-0.18c-0.229-0.966-0.425-1.933-0.586-2.896
				c-0.005-0.031-0.009-0.063-0.015-0.094c-0.154-0.933-0.273-1.861-0.362-2.786c-0.008-0.087-0.015-0.172-0.022-0.258
				c-0.084-0.939-0.138-1.874-0.149-2.799c-0.007-0.533-0.002-1.055,0.015-1.568c0.002-0.071,0.008-0.139,0.011-0.209
				c0.016-0.403,0.039-0.801,0.069-1.192c0.012-0.156,0.026-0.31,0.041-0.463c0.029-0.311,0.063-0.616,0.1-0.918
				c0.021-0.164,0.042-0.328,0.065-0.489c0.042-0.294,0.09-0.581,0.141-0.866c0.028-0.159,0.055-0.32,0.085-0.477
				c0.055-0.273,0.116-0.539,0.179-0.805c0.039-0.17,0.075-0.344,0.118-0.511c0.061-0.238,0.131-0.468,0.198-0.7
				c0.056-0.193,0.108-0.391,0.169-0.58c0.047-0.147,0.102-0.287,0.151-0.432c0.102-0.296,0.204-0.59,0.317-0.874
				c0.053-0.136,0.112-0.265,0.168-0.396c0.145-0.341,0.295-0.673,0.454-0.996c0.063-0.128,0.127-0.254,0.192-0.379
				c0.273-0.522,0.564-1.024,0.879-1.498c0.058-0.087,0.119-0.168,0.178-0.253c0.234-0.339,0.479-0.665,0.734-0.977
				c0.079-0.097,0.156-0.194,0.237-0.288c0.315-0.367,0.643-0.718,0.986-1.045c0.05-0.047,0.104-0.089,0.154-0.136
				c0.305-0.281,0.622-0.545,0.947-0.795c0.101-0.076,0.2-0.152,0.302-0.226c0.382-0.275,0.772-0.538,1.181-0.771l-2.329,1.33
				c-0.408,0.232-0.798,0.494-1.18,0.771c-0.103,0.073-0.203,0.149-0.303,0.227c-0.326,0.249-0.644,0.514-0.949,0.795
				c-0.05,0.046-0.103,0.088-0.152,0.135c-0.344,0.327-0.671,0.678-0.986,1.045c-0.081,0.094-0.158,0.191-0.237,0.288
				c-0.255,0.313-0.5,0.637-0.733,0.976c-0.043,0.062-0.092,0.115-0.135,0.178c-0.016,0.024-0.028,0.053-0.045,0.077
				c-0.314,0.474-0.605,0.976-0.879,1.499c-0.027,0.051-0.06,0.095-0.086,0.146c-0.038,0.073-0.068,0.154-0.104,0.229
				c-0.16,0.325-0.312,0.659-0.456,1.001c-0.038,0.09-0.083,0.171-0.119,0.262c-0.018,0.042-0.03,0.088-0.048,0.13
				c-0.112,0.286-0.217,0.582-0.318,0.879c-0.042,0.12-0.09,0.233-0.129,0.355c-0.008,0.023-0.015,0.049-0.021,0.073
				c-0.061,0.189-0.113,0.387-0.169,0.58c-0.06,0.202-0.123,0.399-0.177,0.606c-0.009,0.031-0.015,0.063-0.022,0.094
				c-0.042,0.166-0.078,0.339-0.117,0.508c-0.05,0.217-0.105,0.43-0.15,0.651c-0.011,0.052-0.018,0.105-0.028,0.157
				c-0.03,0.156-0.057,0.315-0.084,0.474c-0.034,0.193-0.073,0.383-0.104,0.579c-0.015,0.095-0.024,0.193-0.038,0.289
				c-0.023,0.161-0.045,0.325-0.064,0.489c-0.019,0.142-0.041,0.279-0.057,0.423c-0.018,0.162-0.028,0.33-0.044,0.495
				c-0.015,0.153-0.029,0.307-0.041,0.463c-0.007,0.082-0.017,0.161-0.022,0.244c-0.021,0.313-0.035,0.634-0.047,0.955
				c-0.003,0.067-0.008,0.133-0.011,0.2c0,0.016-0.002,0.03-0.002,0.046c-0.013,0.401-0.018,0.808-0.016,1.221
				c0,0.101,0.001,0.202,0.003,0.304c0.004,0.311,0.012,0.623,0.024,0.936c0.017,0.415,0.04,0.83,0.07,1.247
				c0.015,0.205,0.036,0.41,0.055,0.616c0.008,0.086,0.015,0.171,0.022,0.258c0.013,0.128,0.021,0.255,0.034,0.383
				c0.045,0.42,0.096,0.842,0.153,1.264c0.053,0.379,0.112,0.759,0.175,1.14c0.005,0.031,0.01,0.063,0.015,0.094
				c0.004,0.024,0.007,0.049,0.012,0.073c0.074,0.439,0.155,0.879,0.243,1.319c0.092,0.454,0.19,0.908,0.296,1.362
				c0.011,0.048,0.024,0.096,0.035,0.143c0.014,0.06,0.03,0.118,0.044,0.177c0.085,0.354,0.17,0.706,0.264,1.06
				c0.124,0.467,0.255,0.935,0.394,1.4c0.028,0.098,0.062,0.195,0.091,0.293c0.029,0.096,0.06,0.19,0.09,0.285
				c0.086,0.277,0.169,0.556,0.26,0.833c0.155,0.471,0.317,0.941,0.487,1.41c0.048,0.135,0.102,0.269,0.151,0.402
				c0.041,0.109,0.083,0.219,0.124,0.328c0.087,0.23,0.17,0.461,0.26,0.689c0.19,0.484,0.389,0.967,0.594,1.447
				c0.063,0.146,0.131,0.29,0.194,0.437c0.055,0.125,0.111,0.25,0.167,0.375c0.102,0.228,0.199,0.457,0.304,0.684
				c0.271,0.586,0.554,1.169,0.846,1.747c0.021,0.043,0.046,0.083,0.066,0.125c0.113,0.224,0.238,0.44,0.354,0.662
				c0.279,0.533,0.556,1.068,0.853,1.592c0.069,0.122,0.146,0.239,0.215,0.36c0.168,0.292,0.343,0.576,0.516,0.864
				c0.336,0.561,0.679,1.114,1.033,1.661c0.195,0.302,0.393,0.601,0.594,0.898c0.144,0.213,0.279,0.433,0.426,0.644
				c0.196,0.283,0.409,0.553,0.61,0.832c0.254,0.35,0.506,0.699,0.766,1.043c0.111,0.146,0.214,0.299,0.326,0.442
				c0.415,0.536,0.839,1.062,1.271,1.577c0.012,0.014,0.023,0.026,0.035,0.04c0.03,0.035,0.062,0.069,0.091,0.104
				c0.357,0.424,0.719,0.842,1.087,1.251c0.239,0.266,0.485,0.522,0.729,0.781c0.092,0.099,0.183,0.198,0.275,0.296
				c0.065,0.068,0.129,0.14,0.194,0.207c0.394,0.408,0.794,0.807,1.198,1.197c0.168,0.161,0.34,0.315,0.51,0.474
				c0.104,0.098,0.209,0.196,0.315,0.293c0.122,0.112,0.243,0.23,0.366,0.341c0.393,0.352,0.788,0.694,1.188,1.028
				c0.139,0.115,0.279,0.224,0.419,0.336c0.098,0.08,0.195,0.158,0.294,0.237c0.15,0.119,0.299,0.244,0.449,0.361
				c0.373,0.289,0.748,0.569,1.127,0.843c0.16,0.115,0.323,0.223,0.484,0.335c0.087,0.061,0.174,0.121,0.261,0.182
				c0.126,0.085,0.249,0.176,0.375,0.26c0.354,0.236,0.712,0.465,1.071,0.687c0.282,0.174,0.565,0.343,0.851,0.508
				c0.075,0.044,0.151,0.087,0.228,0.13c0.352,0.199,0.704,0.392,1.059,0.575c0.225,0.116,0.448,0.229,0.673,0.339
				c0.132,0.064,0.262,0.127,0.393,0.188c0.175,0.083,0.349,0.156,0.522,0.234c0.134,0.06,0.268,0.122,0.4,0.18
				c0.04,0.017,0.08,0.037,0.12,0.054c0.258,0.109,0.514,0.209,0.77,0.309c0.078,0.03,0.157,0.064,0.235,0.094
				c0.011,0.004,0.021,0.009,0.032,0.013c0.348,0.131,0.692,0.253,1.035,0.365c0.015,0.005,0.03,0.009,0.045,0.014
				c0.109,0.035,0.216,0.064,0.324,0.099c0.225,0.069,0.449,0.142,0.671,0.203c0.037,0.011,0.073,0.018,0.11,0.027
				c0.149,0.041,0.296,0.075,0.443,0.112c0.166,0.042,0.333,0.089,0.498,0.126c0.053,0.012,0.104,0.02,0.156,0.03
				c0.169,0.037,0.336,0.068,0.504,0.101c0.14,0.026,0.28,0.06,0.419,0.083c0.059,0.01,0.116,0.016,0.175,0.025
				c0.181,0.028,0.359,0.052,0.538,0.076c0.127,0.017,0.256,0.04,0.382,0.054c0.057,0.007,0.111,0.008,0.167,0.014
				c0.219,0.022,0.434,0.037,0.648,0.052c0.118,0.008,0.238,0.023,0.355,0.028c0.04,0.002,0.079,0,0.119,0.002
				c0.273,0.011,0.543,0.012,0.812,0.01c0.092-0.001,0.187,0.005,0.278,0.003c0.015,0,0.029-0.003,0.045-0.003
				c0.401-0.011,0.797-0.038,1.187-0.078c0.024-0.002,0.05-0.002,0.075-0.005c0.056-0.006,0.107-0.02,0.163-0.026
				c0.39-0.046,0.773-0.108,1.15-0.184c0.061-0.012,0.125-0.017,0.186-0.029c0.031-0.007,0.059-0.019,0.089-0.025
				c0.539-0.119,1.063-0.27,1.572-0.447c0.042-0.016,0.089-0.022,0.132-0.038c0.052-0.019,0.102-0.043,0.154-0.063
				c0.229-0.086,0.453-0.18,0.676-0.276C351.355,102.962,351.461,102.919,351.564,102.871z"/>
			<g>
				<polygon fill="#B68504" points="313.723,22.624 316.052,21.295 323.636,31.188 321.307,32.518 				"/>
			</g>
			<g>
				<polygon fill="#B68504" points="369.258,113.132 371.587,111.803 359.144,120.36 356.814,121.689 				"/>
			</g>
			<g>
				<polygon fill="#B68504" points="363.804,101.776 366.133,100.447 371.587,111.803 369.258,113.132 				"/>
			</g>
			<g>
				<defs>
					<path id="SVGID_59_" d="M321.307,32.518l2.329-1.329c0.98-0.071,1.994-0.062,3.035,0.022l-2.329,1.329
						C323.301,32.456,322.287,32.446,321.307,32.518z"/>
				</defs>
				<use xlink:href="#SVGID_59_"  overflow="visible" fill="#B68504"/>
				<clipPath id="SVGID_60_">
					<use xlink:href="#SVGID_59_"  overflow="visible"/>
				</clipPath>
				<path clip-path="url(#SVGID_60_)" fill="#B68504" d="M325.97,31.165c-0.487-0.023-0.969-0.03-1.442-0.019
					c-0.3,0.007-0.598,0.021-0.892,0.042l-2.329,1.329c0.294-0.021,0.592-0.035,0.892-0.042c0.474-0.012,0.955-0.005,1.442,0.02
					c0.232,0.011,0.466,0.026,0.701,0.045l2.329-1.329C326.436,31.192,326.202,31.177,325.97,31.165z"/>
			</g>
			<g>
				<defs>
					<path id="SVGID_61_" d="M365.015,98.828l2.329-1.329c-0.354,1.043-0.757,2.022-1.211,2.948l-2.329,1.329
						C364.258,100.852,364.661,99.871,365.015,98.828z"/>
				</defs>
				<use xlink:href="#SVGID_61_"  overflow="visible" fill="#B68504"/>
				<clipPath id="SVGID_62_">
					<use xlink:href="#SVGID_61_"  overflow="visible"/>
				</clipPath>
				<path clip-path="url(#SVGID_62_)" fill="#B68504" d="M365.015,98.828c-0.158,0.466-0.325,0.919-0.503,1.36
					c-0.221,0.547-0.457,1.075-0.708,1.588l2.329-1.329c0.251-0.513,0.487-1.041,0.707-1.588c0.179-0.441,0.346-0.895,0.504-1.36
					L365.015,98.828z"/>
			</g>
			<g>
				<defs>
					<path id="SVGID_63_" d="M345.271,42.775l2.329-1.329c1.048,0.94,2.078,1.931,3.075,2.962l-2.329,1.329
						C347.35,44.706,346.32,43.716,345.271,42.775z"/>
				</defs>
				<use xlink:href="#SVGID_63_"  overflow="visible" fill="#B68504"/>
				<clipPath id="SVGID_64_">
					<use xlink:href="#SVGID_63_"  overflow="visible"/>
				</clipPath>
				<path clip-path="url(#SVGID_64_)" fill="#B68504" d="M350.661,44.394c-0.492-0.509-0.992-1.008-1.498-1.495
					c-0.515-0.496-1.036-0.98-1.563-1.452l-2.329,1.329c0.526,0.472,1.048,0.956,1.563,1.452c0.506,0.487,1.006,0.986,1.498,1.495
					c0.005,0.005,0.01,0.01,0.015,0.015l2.329-1.329C350.671,44.403,350.666,44.398,350.661,44.394z"/>
			</g>
			<g>
				<defs>
					<path id="SVGID_65_" d="M363.377,70.235l2.33-1.329c0.489,1.392,0.925,2.788,1.309,4.179l-2.33,1.329
						C364.303,73.023,363.867,71.627,363.377,70.235z"/>
				</defs>
				<use xlink:href="#SVGID_65_"  overflow="visible" fill="#B68504"/>
				<clipPath id="SVGID_66_">
					<use xlink:href="#SVGID_65_"  overflow="visible"/>
				</clipPath>
				<path clip-path="url(#SVGID_66_)" fill="#B68504" d="M366.676,71.897c-0.175-0.587-0.358-1.175-0.551-1.763
					c-0.135-0.409-0.274-0.819-0.419-1.229l-2.329,1.329c0.145,0.409,0.284,0.819,0.419,1.229c0.192,0.588,0.376,1.176,0.551,1.763
					c0.117,0.396,0.23,0.792,0.34,1.188l2.329-1.329C366.906,72.689,366.793,72.294,366.676,71.897z"/>
			</g>
			<g>
				<polygon fill="#B68504" points="343.601,31.436 345.93,30.106 347.601,41.446 345.271,42.775 				"/>
			</g>
			<g>
				<polygon fill="#B68504" points="325.725,22.689 328.054,21.36 345.93,30.106 343.601,31.436 				"/>
			</g>
			<g>
				<polygon fill="#B68504" points="373.787,80.641 376.116,79.312 376.4,100.155 374.071,101.484 				"/>
			</g>
			<g>
				<polygon fill="#B68504" points="364.687,74.414 367.016,73.085 376.116,79.312 373.787,80.641 				"/>
			</g>
			<g>
				<polygon fill="#B68504" points="348.347,45.737 350.676,44.408 358.09,41.851 355.761,43.18 				"/>
			</g>
			<g>
				<polygon fill="#B68504" points="355.761,43.18 358.09,41.851 370.926,62.774 368.596,64.104 				"/>
			</g>
			<g>
				<path fill="#FFB806" d="M365.015,98.828c-0.354,1.043-0.757,2.023-1.211,2.948l5.454,11.355l-12.443,8.558l-7.577-9.889
					c-0.987,0.066-2.001,0.058-3.042-0.019l-1.383,9.843l-17.876-8.738l-1.664-11.335c-1.056-0.944-2.078-1.931-3.075-2.971
					l-7.421,2.554L301.94,80.219l5.22-6.14c-0.483-1.38-0.919-2.775-1.31-4.179l-9.101-6.228l-0.284-20.843l9.057,2.656
					c0.353-1.035,0.757-2.023,1.219-2.944l-5.454-11.355l12.436-8.563l7.584,9.894c0.98-0.071,1.994-0.062,3.035,0.022l1.383-9.851
					l17.876,8.746l1.671,11.34c1.049,0.94,2.078,1.931,3.075,2.962l7.414-2.558l12.835,20.924l-5.219,6.132
					c0.49,1.392,0.926,2.788,1.31,4.179l9.101,6.227l0.284,20.844L365.015,98.828z M335.669,101.688
					c13.981,6.842,25.134-0.844,24.919-17.149c-0.212-15.545-10.678-33.313-23.765-40.868c-0.643-0.371-1.294-0.719-1.948-1.039
					c-13.98-6.833-25.141,0.84-24.918,17.149c0.205,15.536,10.671,33.311,23.753,40.863
					C334.356,101.017,335.011,101.366,335.669,101.688"/>
			</g>
			<g>
				<polygon fill="#B68504" points="368.596,64.104 370.926,62.774 365.707,68.906 363.377,70.235 				"/>
			</g>
		</g>
	</g>
	<g>
		<g enable-background="new    ">
			<g>
				<polygon fill="#CBCCD0" points="319.28,160.979 320.863,160.076 327.016,161.881 325.434,162.784 				"/>
			</g>
			<g>
				<polygon fill="#CBCCD0" points="353.065,207.824 354.647,206.921 353.708,213.607 352.126,214.511 				"/>
			</g>
			<path fill="#CBCCD0" d="M356.713,201.771c0.217-0.103,0.431-0.211,0.639-0.329l0.003-0.001l1.582-0.903
				c-0.209,0.119-0.423,0.228-0.642,0.33c-0.069,0.032-0.141,0.062-0.211,0.092c-0.152,0.066-0.306,0.131-0.462,0.188
				c-0.063,0.024-0.128,0.046-0.192,0.068c-0.348,0.121-0.703,0.224-1.069,0.304c-0.062,0.014-0.124,0.025-0.185,0.037
				c-0.257,0.052-0.518,0.094-0.783,0.125c-0.055,0.007-0.107,0.016-0.162,0.021c-0.265,0.027-0.533,0.046-0.806,0.053
				c-0.072,0.002-0.146-0.001-0.219,0c-0.183,0.001-0.366,0.001-0.553-0.007c-0.106-0.004-0.214-0.013-0.32-0.02
				c-0.146-0.01-0.294-0.021-0.442-0.036c-0.123-0.013-0.248-0.029-0.372-0.046c-0.122-0.016-0.243-0.032-0.366-0.052
				c-0.134-0.021-0.269-0.047-0.404-0.073c-0.113-0.022-0.227-0.043-0.341-0.068c-0.147-0.032-0.297-0.069-0.446-0.106
				c-0.1-0.025-0.199-0.048-0.3-0.075c-0.178-0.049-0.356-0.104-0.536-0.159c-0.071-0.022-0.143-0.041-0.214-0.064
				c-0.251-0.082-0.503-0.171-0.758-0.267c-0.051-0.02-0.103-0.042-0.153-0.062c-0.202-0.079-0.406-0.161-0.61-0.249
				c-0.09-0.038-0.18-0.08-0.27-0.121c-0.207-0.093-0.415-0.186-0.624-0.287c-0.447-0.219-0.892-0.456-1.331-0.71
				c-0.526-0.305-1.047-0.637-1.56-0.988c-0.06-0.04-0.119-0.081-0.178-0.122c-0.474-0.33-0.94-0.68-1.4-1.047
				c-0.066-0.053-0.133-0.106-0.199-0.16c-0.454-0.369-0.901-0.756-1.34-1.159c-0.072-0.065-0.144-0.132-0.215-0.199
				c-0.438-0.41-0.87-0.834-1.292-1.275c-0.063-0.066-0.125-0.135-0.188-0.201c-0.421-0.447-0.834-0.907-1.235-1.382
				c-0.02-0.023-0.04-0.046-0.06-0.069c-0.381-0.453-0.747-0.924-1.108-1.4c-0.178-0.232-0.349-0.47-0.521-0.708
				c-0.239-0.33-0.476-0.663-0.704-1.003c-0.137-0.201-0.271-0.404-0.403-0.609c-0.241-0.371-0.474-0.749-0.702-1.129
				c-0.117-0.195-0.236-0.389-0.35-0.586c-0.252-0.438-0.492-0.882-0.727-1.328c-0.078-0.15-0.163-0.298-0.239-0.448
				c-0.291-0.572-0.566-1.152-0.827-1.736c-0.038-0.086-0.076-0.171-0.113-0.256c-0.253-0.578-0.49-1.161-0.712-1.747
				c-0.028-0.074-0.057-0.149-0.084-0.224c-0.221-0.597-0.425-1.196-0.61-1.798c-0.021-0.064-0.041-0.128-0.061-0.192
				c-0.188-0.622-0.358-1.246-0.508-1.87c-0.01-0.04-0.021-0.081-0.031-0.121c-0.154-0.657-0.288-1.313-0.397-1.969
				c-0.004-0.021-0.007-0.042-0.01-0.063c-0.104-0.633-0.187-1.265-0.246-1.893c-0.006-0.059-0.011-0.117-0.016-0.175
				c-0.057-0.639-0.094-1.273-0.102-1.902c-0.005-0.361-0.001-0.716,0.01-1.065c0.002-0.048,0.006-0.094,0.008-0.142
				c0.011-0.273,0.026-0.544,0.047-0.811c0.008-0.105,0.019-0.209,0.028-0.314c0.02-0.21,0.042-0.418,0.067-0.623
				c0.014-0.111,0.028-0.223,0.044-0.332c0.028-0.199,0.062-0.395,0.096-0.589c0.02-0.108,0.037-0.217,0.059-0.323
				c0.036-0.187,0.078-0.366,0.12-0.547c0.027-0.116,0.052-0.233,0.081-0.348c0.041-0.161,0.089-0.317,0.134-0.476
				c0.038-0.131,0.074-0.266,0.115-0.394c0.032-0.101,0.069-0.195,0.103-0.293c0.069-0.201,0.14-0.401,0.216-0.595
				c0.036-0.092,0.076-0.179,0.114-0.27c0.098-0.23,0.2-0.457,0.309-0.676c0.043-0.087,0.086-0.173,0.131-0.258
				c0.186-0.354,0.384-0.696,0.597-1.018c0.039-0.06,0.081-0.114,0.121-0.172c0.159-0.23,0.325-0.452,0.499-0.664
				c0.054-0.065,0.106-0.132,0.161-0.195c0.214-0.249,0.437-0.487,0.67-0.71c0.034-0.032,0.07-0.061,0.104-0.092
				c0.207-0.191,0.423-0.371,0.645-0.54c0.067-0.052,0.136-0.104,0.204-0.153c0.26-0.188,0.525-0.366,0.803-0.524l-1.583,0.903
				c-0.276,0.158-0.542,0.336-0.801,0.523c-0.07,0.05-0.138,0.102-0.206,0.154c-0.222,0.17-0.437,0.349-0.645,0.54
				c-0.034,0.031-0.069,0.06-0.104,0.092c-0.233,0.222-0.456,0.46-0.67,0.71c-0.056,0.063-0.108,0.13-0.162,0.195
				c-0.173,0.212-0.339,0.433-0.498,0.663c-0.029,0.042-0.063,0.078-0.091,0.121c-0.011,0.016-0.02,0.035-0.03,0.052
				c-0.214,0.322-0.412,0.663-0.598,1.019c-0.019,0.034-0.041,0.064-0.059,0.1c-0.025,0.05-0.046,0.104-0.071,0.155
				c-0.108,0.221-0.211,0.447-0.31,0.681c-0.025,0.061-0.056,0.116-0.081,0.177c-0.012,0.029-0.021,0.061-0.032,0.089
				c-0.077,0.194-0.147,0.395-0.217,0.597c-0.028,0.082-0.061,0.158-0.087,0.241c-0.006,0.017-0.01,0.034-0.015,0.05
				c-0.042,0.129-0.077,0.263-0.115,0.395c-0.04,0.138-0.083,0.271-0.12,0.412c-0.005,0.021-0.01,0.043-0.015,0.063
				c-0.028,0.113-0.053,0.23-0.08,0.346c-0.034,0.146-0.071,0.291-0.102,0.441c-0.008,0.035-0.013,0.072-0.02,0.107
				c-0.021,0.105-0.038,0.214-0.058,0.321c-0.023,0.132-0.049,0.261-0.07,0.395c-0.01,0.063-0.017,0.131-0.025,0.195
				c-0.016,0.11-0.03,0.222-0.044,0.333c-0.013,0.096-0.027,0.189-0.038,0.287c-0.012,0.11-0.02,0.225-0.03,0.336
				c-0.01,0.104-0.02,0.209-0.028,0.314c-0.004,0.056-0.011,0.11-0.015,0.166c-0.015,0.214-0.023,0.431-0.032,0.649
				c-0.002,0.045-0.005,0.09-0.007,0.136c0,0.011-0.001,0.021-0.001,0.031c-0.009,0.272-0.013,0.549-0.011,0.829
				c0,0.068,0.001,0.137,0.002,0.206c0.003,0.212,0.008,0.424,0.017,0.636c0.011,0.282,0.026,0.564,0.047,0.848
				c0.011,0.139,0.025,0.278,0.038,0.418c0.005,0.059,0.01,0.117,0.016,0.176c0.008,0.087,0.014,0.173,0.022,0.26
				c0.03,0.285,0.065,0.571,0.104,0.858c0.035,0.258,0.076,0.516,0.118,0.774c0.004,0.021,0.007,0.043,0.01,0.063
				c0.004,0.017,0.006,0.033,0.008,0.05c0.051,0.299,0.106,0.598,0.166,0.896c0.063,0.309,0.129,0.617,0.201,0.926
				c0.007,0.032,0.016,0.064,0.023,0.097c0.01,0.04,0.021,0.08,0.03,0.12c0.058,0.24,0.115,0.479,0.179,0.72
				c0.084,0.317,0.174,0.635,0.268,0.951c0.02,0.066,0.042,0.133,0.062,0.199c0.021,0.064,0.041,0.129,0.062,0.194
				c0.058,0.188,0.114,0.377,0.177,0.565c0.104,0.319,0.215,0.64,0.33,0.958c0.033,0.091,0.069,0.182,0.104,0.273
				c0.027,0.074,0.056,0.148,0.084,0.223c0.059,0.156,0.115,0.313,0.177,0.469c0.129,0.329,0.264,0.656,0.403,0.982
				c0.042,0.1,0.089,0.198,0.132,0.297c0.037,0.085,0.075,0.17,0.113,0.255c0.069,0.154,0.135,0.311,0.206,0.464
				c0.185,0.399,0.376,0.795,0.575,1.188c0.014,0.029,0.03,0.057,0.045,0.085c0.077,0.151,0.162,0.299,0.24,0.449
				c0.19,0.362,0.378,0.727,0.58,1.082c0.047,0.083,0.099,0.163,0.146,0.245c0.114,0.197,0.233,0.392,0.351,0.587
				c0.229,0.381,0.461,0.757,0.701,1.129c0.133,0.205,0.268,0.408,0.404,0.61c0.098,0.145,0.189,0.294,0.289,0.437
				c0.134,0.192,0.277,0.376,0.415,0.565c0.172,0.237,0.343,0.476,0.52,0.708c0.075,0.1,0.146,0.203,0.222,0.302
				c0.281,0.363,0.569,0.721,0.863,1.07c0.008,0.01,0.016,0.019,0.023,0.027c0.021,0.024,0.042,0.048,0.063,0.071
				c0.242,0.288,0.488,0.572,0.738,0.85c0.162,0.181,0.329,0.355,0.495,0.531c0.063,0.066,0.124,0.135,0.188,0.201
				c0.044,0.046,0.087,0.095,0.132,0.141c0.268,0.277,0.539,0.548,0.814,0.813c0.113,0.11,0.23,0.215,0.346,0.322
				c0.071,0.066,0.143,0.134,0.214,0.199c0.084,0.076,0.165,0.156,0.249,0.231c0.267,0.239,0.535,0.472,0.808,0.698
				c0.094,0.079,0.189,0.152,0.284,0.229c0.066,0.055,0.133,0.107,0.199,0.161c0.103,0.081,0.203,0.166,0.306,0.246
				c0.253,0.196,0.509,0.387,0.766,0.572c0.108,0.078,0.22,0.151,0.329,0.228c0.059,0.041,0.118,0.082,0.177,0.123
				c0.085,0.059,0.17,0.119,0.255,0.177c0.241,0.16,0.483,0.316,0.728,0.466c0.192,0.119,0.385,0.233,0.578,0.346
				c0.052,0.029,0.103,0.059,0.155,0.088c0.238,0.136,0.478,0.266,0.719,0.391c0.152,0.079,0.305,0.156,0.457,0.23
				c0.089,0.044,0.178,0.087,0.267,0.128c0.119,0.057,0.237,0.106,0.355,0.159c0.09,0.041,0.181,0.083,0.271,0.122
				c0.027,0.012,0.055,0.025,0.081,0.037c0.176,0.074,0.35,0.142,0.523,0.209c0.053,0.021,0.106,0.044,0.16,0.064
				c0.007,0.002,0.015,0.006,0.021,0.009c0.236,0.089,0.471,0.171,0.703,0.247c0.01,0.004,0.021,0.006,0.031,0.01
				c0.073,0.024,0.146,0.044,0.22,0.066c0.152,0.048,0.305,0.097,0.456,0.139c0.025,0.007,0.05,0.012,0.075,0.019
				c0.101,0.027,0.2,0.051,0.301,0.076c0.112,0.028,0.227,0.061,0.339,0.085c0.035,0.009,0.07,0.014,0.105,0.021
				c0.115,0.025,0.229,0.046,0.343,0.068c0.095,0.018,0.19,0.04,0.284,0.057c0.04,0.007,0.079,0.01,0.119,0.017
				c0.123,0.02,0.244,0.036,0.365,0.052c0.086,0.012,0.174,0.027,0.26,0.037c0.038,0.004,0.075,0.005,0.113,0.009
				c0.148,0.016,0.294,0.025,0.44,0.035c0.08,0.006,0.162,0.016,0.241,0.02c0.027,0.001,0.054,0,0.081,0.001
				c0.186,0.008,0.369,0.008,0.552,0.007c0.063-0.001,0.127,0.003,0.188,0.002c0.011,0,0.021-0.002,0.03-0.002
				c0.273-0.008,0.542-0.025,0.807-0.053c0.017-0.002,0.034-0.002,0.051-0.004c0.038-0.004,0.073-0.013,0.111-0.018
				c0.265-0.031,0.525-0.073,0.781-0.125c0.041-0.008,0.085-0.012,0.126-0.021c0.021-0.004,0.04-0.012,0.061-0.017
				c0.366-0.081,0.722-0.184,1.067-0.304c0.029-0.011,0.061-0.016,0.09-0.025c0.036-0.014,0.069-0.03,0.104-0.043
				c0.156-0.059,0.309-0.122,0.46-0.188C356.571,201.832,356.643,201.803,356.713,201.771z"/>
			<g>
				<polygon fill="#CBCCD0" points="331.004,147.253 332.586,146.35 337.739,153.07 336.156,153.974 				"/>
			</g>
			<g>
				<polygon fill="#CBCCD0" points="368.733,208.741 370.315,207.838 361.862,213.652 360.28,214.555 				"/>
			</g>
			<g>
				<polygon fill="#CBCCD0" points="365.027,201.026 366.61,200.123 370.315,207.838 368.733,208.741 				"/>
			</g>
			<g>
				<defs>
					<path id="SVGID_67_" d="M336.156,153.974l1.583-0.903c0.666-0.048,1.354-0.041,2.062,0.016l-1.582,0.903
						C337.512,153.932,336.822,153.926,336.156,153.974z"/>
				</defs>
				<use xlink:href="#SVGID_67_"  overflow="visible" fill="#CBCCD0"/>
				<clipPath id="SVGID_68_">
					<use xlink:href="#SVGID_67_"  overflow="visible"/>
				</clipPath>
				<path clip-path="url(#SVGID_68_)" fill="#CBCCD0" d="M339.324,153.056c-0.331-0.017-0.658-0.021-0.979-0.014
					c-0.204,0.005-0.405,0.015-0.605,0.028l-1.582,0.903c0.199-0.015,0.401-0.023,0.605-0.028c0.321-0.008,0.648-0.003,0.979,0.013
					c0.158,0.008,0.316,0.019,0.477,0.031l1.582-0.903C339.641,153.073,339.482,153.063,339.324,153.056z"/>
			</g>
			<g>
				<defs>
					<path id="SVGID_69_" d="M365.851,199.023l1.582-0.903c-0.24,0.709-0.514,1.375-0.822,2.003l-1.583,0.903
						C365.336,200.397,365.61,199.732,365.851,199.023z"/>
				</defs>
				<use xlink:href="#SVGID_69_"  overflow="visible" fill="#CBCCD0"/>
				<clipPath id="SVGID_70_">
					<use xlink:href="#SVGID_69_"  overflow="visible"/>
				</clipPath>
				<path clip-path="url(#SVGID_70_)" fill="#CBCCD0" d="M365.851,199.023c-0.107,0.316-0.222,0.624-0.342,0.924
					c-0.15,0.372-0.311,0.731-0.481,1.079l1.583-0.903c0.171-0.348,0.331-0.707,0.48-1.079c0.121-0.3,0.235-0.607,0.342-0.924
					L365.851,199.023z"/>
			</g>
			<g>
				<defs>
					<path id="SVGID_71_" d="M352.438,160.942l1.583-0.903c0.712,0.64,1.411,1.313,2.089,2.013l-1.582,0.903
						C353.85,162.254,353.149,161.581,352.438,160.942z"/>
				</defs>
				<use xlink:href="#SVGID_71_"  overflow="visible" fill="#CBCCD0"/>
				<clipPath id="SVGID_72_">
					<use xlink:href="#SVGID_71_"  overflow="visible"/>
				</clipPath>
				<path clip-path="url(#SVGID_72_)" fill="#CBCCD0" d="M356.1,162.042c-0.335-0.346-0.674-0.685-1.018-1.016
					c-0.351-0.337-0.705-0.666-1.062-0.987l-1.583,0.903c0.357,0.32,0.712,0.649,1.062,0.987c0.344,0.331,0.684,0.67,1.019,1.015
					c0.003,0.004,0.006,0.007,0.01,0.011l1.582-0.903C356.105,162.049,356.103,162.045,356.1,162.042z"/>
			</g>
			<g>
				<defs>
					<path id="SVGID_73_" d="M364.738,179.598l1.582-0.902c0.333,0.945,0.629,1.894,0.89,2.839l-1.583,0.903
						C365.367,181.492,365.071,180.544,364.738,179.598z"/>
				</defs>
				<use xlink:href="#SVGID_73_"  overflow="visible" fill="#CBCCD0"/>
				<clipPath id="SVGID_74_">
					<use xlink:href="#SVGID_73_"  overflow="visible"/>
				</clipPath>
				<path clip-path="url(#SVGID_74_)" fill="#CBCCD0" d="M366.979,180.728c-0.118-0.399-0.242-0.799-0.374-1.197
					c-0.092-0.278-0.187-0.557-0.284-0.835l-1.582,0.902c0.098,0.278,0.192,0.557,0.284,0.835c0.131,0.399,0.256,0.799,0.374,1.197
					c0.08,0.27,0.157,0.539,0.23,0.808l1.583-0.903C367.136,181.266,367.059,180.996,366.979,180.728z"/>
			</g>
			<g>
				<polygon fill="#CBCCD0" points="351.302,153.238 352.885,152.336 354.021,160.039 352.438,160.942 				"/>
			</g>
			<g>
				<polygon fill="#CBCCD0" points="339.158,147.297 340.74,146.394 352.885,152.336 351.302,153.238 				"/>
			</g>
			<g>
				<polygon fill="#CBCCD0" points="371.811,186.668 373.393,185.765 373.586,199.925 372.003,200.828 				"/>
			</g>
			<g>
				<polygon fill="#CBCCD0" points="365.627,182.438 367.21,181.534 373.393,185.765 371.811,186.668 				"/>
			</g>
			<g>
				<polygon fill="#CBCCD0" points="354.527,162.955 356.109,162.052 361.146,160.314 359.564,161.217 				"/>
			</g>
			<g>
				<polygon fill="#CBCCD0" points="359.564,161.217 361.146,160.314 369.866,174.529 368.284,175.433 				"/>
			</g>
			<g>
				<path fill="#EFF0EF" d="M365.851,199.023c-0.24,0.709-0.515,1.374-0.823,2.003l3.706,7.715l-8.453,5.813l-5.148-6.718
					c-0.671,0.045-1.359,0.039-2.066-0.013l-0.939,6.687l-12.145-5.937l-1.131-7.7c-0.717-0.643-1.411-1.313-2.089-2.019
					l-5.042,1.735l-8.72-14.21l3.546-4.171c-0.328-0.938-0.624-1.886-0.89-2.84l-6.183-4.229l-0.193-14.161l6.153,1.805
					c0.239-0.703,0.514-1.374,0.827-2l-3.705-7.715l8.448-5.816l5.152,6.721c0.666-0.048,1.355-0.042,2.063,0.016l0.939-6.692
					l12.144,5.941l1.136,7.704c0.712,0.639,1.412,1.312,2.09,2.013l5.037-1.738l8.72,14.216l-3.546,4.165
					c0.333,0.946,0.629,1.895,0.889,2.84l6.184,4.23l0.192,14.16L365.851,199.023z M345.914,200.966
					c9.498,4.648,17.075-0.573,16.929-11.65c-0.144-10.562-7.254-22.633-16.145-27.766c-0.437-0.252-0.879-0.488-1.323-0.705
					c-9.498-4.643-17.08,0.57-16.929,11.65c0.139,10.556,7.249,22.63,16.137,27.762
					C345.022,200.511,345.467,200.747,345.914,200.966"/>
			</g>
			<g>
				<polygon fill="#CBCCD0" points="368.284,175.433 369.866,174.529 366.32,178.695 364.738,179.598 				"/>
			</g>
		</g>
	</g>
	<path fill="#132D98" d="M325.467,47.661l-63.903-36.895c-2.198-1.27-4.673-1.076-6.573,0.072l-0.007-0.004l-5.75,3.359l2.431,1.949
		l0.22-0.032c-0.004,0.085-0.018,0.167-0.018,0.254v170.91c0,4.844,2.584,9.319,6.779,11.741l64.994,37.524
		c0.349,0.201,0.705,0.358,1.063,0.493l-1.045,1.363l1.501,1.304l5.396-3.123v-0.004c2.069-1.167,3.556-3.363,3.556-6.078V62.632
		C334.11,56.456,330.815,50.749,325.467,47.661z"/>
	<path fill="#455DAB" d="M246.52,190.37V19.46c0-4.977,5.388-8.087,9.697-5.599l63.903,36.895c5.349,3.089,8.644,8.796,8.644,14.972
		v167.864c0,5.373-5.816,8.731-10.471,6.045l-64.994-37.524C249.104,199.69,246.52,195.214,246.52,190.37z"/>
	<polygon fill="#FFFFFF" points="250.355,184.153 250.355,17.947 323.729,60.278 323.729,226.483 	"/>
	<path fill="#C4C4C4" d="M275.37,207.78L275.37,207.78c0,1.36,0.726,2.616,1.903,3.296l11.342,6.553
		c0.922,0.532,2.075-0.134,2.075-1.198l0,0c0-1.914-1.021-3.683-2.679-4.64l-9.79-5.656
		C276.954,205.402,275.37,206.317,275.37,207.78z"/>
	<path fill="#FFFFFF" d="M285.135,34.382L285.135,34.382c0,0.445,0.237,0.856,0.623,1.079l6.492,3.762
		c0.302,0.174,0.68-0.044,0.68-0.393l0,0c0-0.626-0.334-1.205-0.877-1.519l-5.984-3.468
		C285.653,33.604,285.135,33.903,285.135,34.382z"/>
	<g>
		<linearGradient id="SVGID_75_" gradientUnits="userSpaceOnUse" x1="232.334" y1="5.3843" x2="215.9534" y2="33.7563">
			<stop  offset="0" style="stop-color:#3973D4;stop-opacity:0"/>
			<stop  offset="0.8587" style="stop-color:#3973D4;stop-opacity:0.2576"/>
			<stop  offset="1" style="stop-color:#3973D4;stop-opacity:0.3"/>
		</linearGradient>
		<polygon fill="url(#SVGID_75_)" points="190.225,18.901 223.009,0 258.063,20.239 225.239,39.117 		"/>
		<g>
			<linearGradient id="SVGID_76_" gradientUnits="userSpaceOnUse" x1="189.1436" y1="60.6973" x2="189.1436" y2="18.9395">
				<stop  offset="0" style="stop-color:#218EE8"/>
				<stop  offset="0.5494" style="stop-color:#5BCAF4"/>
				<stop  offset="1" style="stop-color:#8DFFFF"/>
			</linearGradient>
			<polygon opacity="0.75" fill="url(#SVGID_76_)" points="187.994,20.239 190.293,18.939 190.293,59.371 187.994,60.697 			"/>
			<linearGradient id="SVGID_77_" gradientUnits="userSpaceOnUse" x1="190.2246" y1="49.2427" x2="225.2393" y2="49.2427">
				<stop  offset="0" style="stop-color:#218EE8"/>
				<stop  offset="0.5494" style="stop-color:#5BCAF4"/>
				<stop  offset="1" style="stop-color:#8DFFFF"/>
			</linearGradient>
			<polygon opacity="0.75" fill="url(#SVGID_77_)" points="225.239,79.566 225.239,39.135 190.225,18.919 190.225,59.351 			"/>
			<polygon fill="#EAEAEA" points="223.009,80.841 187.994,60.697 187.994,20.239 223.009,40.382 			"/>
			<path fill="#3973D4" d="M206.723,51.66c2.705,0.904,4.737-0.695,4.737-4.015c0-3.803-2.668-8.42-5.959-10.313
				c-3.291-1.893-5.959-0.345-5.959,3.458c0,3.318,2.033,7.257,4.737,9.465c-4.35-1.813-7.704,0.558-7.704,5.773v2.584l17.853,10.27
				v-2.584C214.428,61.082,211.073,54.853,206.723,51.66z"/>
			<polygon fill="#FFFFFF" points="187.994,20.239 190.225,18.901 225.239,39.117 223.009,40.382 			"/>
			<polygon fill="#FFFFFF" points="223.009,80.841 225.239,79.549 225.239,39.117 223.009,40.382 			"/>
		</g>
		<linearGradient id="SVGID_78_" gradientUnits="userSpaceOnUse" x1="225.2393" y1="49.894" x2="258.0635" y2="49.894">
			<stop  offset="0" style="stop-color:#3973D4;stop-opacity:0.3"/>
			<stop  offset="0.1413" style="stop-color:#3973D4;stop-opacity:0.2576"/>
			<stop  offset="1" style="stop-color:#3973D4;stop-opacity:0"/>
		</linearGradient>
		<polygon fill="url(#SVGID_78_)" points="225.239,39.117 258.063,20.239 258.063,60.697 225.239,79.549 		"/>
	</g>
	<g>
		<linearGradient id="SVGID_79_" gradientUnits="userSpaceOnUse" x1="304.2168" y1="186.292" x2="287.8359" y2="214.6645">
			<stop  offset="0" style="stop-color:#EEFFFF;stop-opacity:0"/>
			<stop  offset="0.8587" style="stop-color:#EEFFFF;stop-opacity:0.2576"/>
			<stop  offset="1" style="stop-color:#EEFFFF;stop-opacity:0.3"/>
		</linearGradient>
		<polygon fill="url(#SVGID_79_)" points="262.105,199.81 294.89,180.908 329.944,201.146 297.12,220.025 		"/>
		<g>
			<linearGradient id="SVGID_80_" gradientUnits="userSpaceOnUse" x1="261.0254" y1="241.6055" x2="261.0254" y2="199.8477">
				<stop  offset="0" style="stop-color:#4068CC"/>
				<stop  offset="0.6489" style="stop-color:#72A4EC"/>
				<stop  offset="1" style="stop-color:#8FC7FF"/>
			</linearGradient>
			<polygon opacity="0.75" fill="url(#SVGID_80_)" points="259.875,201.146 262.175,199.848 262.175,240.278 259.875,241.605 			"/>
			<linearGradient id="SVGID_81_" gradientUnits="userSpaceOnUse" x1="262.1055" y1="230.1504" x2="297.1201" y2="230.1504">
				<stop  offset="0" style="stop-color:#4068CC"/>
				<stop  offset="0.6489" style="stop-color:#72A4EC"/>
				<stop  offset="1" style="stop-color:#8FC7FF"/>
			</linearGradient>
			<polygon opacity="0.75" fill="url(#SVGID_81_)" points="297.12,260.474 297.12,220.043 262.105,199.827 262.105,240.259 			"/>
			<polygon fill="#1F3696" points="294.89,261.748 259.875,241.605 259.875,201.146 294.89,221.29 			"/>
			<polygon fill="#3C72D1" points="259.875,201.146 262.105,199.81 297.12,220.025 294.89,221.29 			"/>
			<polygon fill="#3C72D1" points="294.89,261.748 297.12,260.457 297.12,220.025 294.89,221.29 			"/>
			<path fill="#FFFFFF" d="M278.498,220.086c-4.563-2.624-8.26-0.479-8.26,4.793c0,5.271,8.26,20.697,8.26,20.697
				s8.259-5.924,8.259-11.194C286.757,229.11,283.06,222.711,278.498,220.086z M278.498,234.908
				c-2.523-1.451-4.568-4.991-4.568-7.906s2.045-4.102,4.568-2.65c2.522,1.452,4.567,4.991,4.567,7.906
				S281.021,236.359,278.498,234.908z"/>
		</g>
		<linearGradient id="SVGID_82_" gradientUnits="userSpaceOnUse" x1="297.1201" y1="230.8018" x2="329.9443" y2="230.8018">
			<stop  offset="0" style="stop-color:#EEFFFF;stop-opacity:0.3"/>
			<stop  offset="0.1413" style="stop-color:#EEFFFF;stop-opacity:0.2576"/>
			<stop  offset="1" style="stop-color:#EEFFFF;stop-opacity:0"/>
		</linearGradient>
		<polygon fill="url(#SVGID_82_)" points="297.12,220.025 329.944,201.146 329.944,241.605 297.12,260.457 		"/>
	</g>
	<g>
		<linearGradient id="SVGID_83_" gradientUnits="userSpaceOnUse" x1="230.123" y1="152.499" x2="213.7419" y2="180.8719">
			<stop  offset="0" style="stop-color:#EEFFFF;stop-opacity:0"/>
			<stop  offset="0.8587" style="stop-color:#EEFFFF;stop-opacity:0.2576"/>
			<stop  offset="1" style="stop-color:#EEFFFF;stop-opacity:0.3"/>
		</linearGradient>
		<polygon fill="url(#SVGID_83_)" points="188.014,166.018 220.798,147.115 255.853,167.354 223.028,186.233 		"/>
		<g>
			<linearGradient id="SVGID_84_" gradientUnits="userSpaceOnUse" x1="186.9336" y1="207.8125" x2="186.9336" y2="166.0552">
				<stop  offset="0" style="stop-color:#5D539B"/>
				<stop  offset="0.6178" style="stop-color:#9977D7"/>
				<stop  offset="1" style="stop-color:#C08FFF"/>
			</linearGradient>
			<polygon opacity="0.75" fill="url(#SVGID_84_)" points="185.784,167.354 188.083,166.055 188.083,206.486 185.784,207.813 			"/>
			<linearGradient id="SVGID_85_" gradientUnits="userSpaceOnUse" x1="188.0137" y1="196.3584" x2="223.0283" y2="196.3584">
				<stop  offset="0" style="stop-color:#5D539B"/>
				<stop  offset="0.6178" style="stop-color:#9977D7"/>
				<stop  offset="1" style="stop-color:#C08FFF"/>
			</linearGradient>
			<polygon opacity="0.75" fill="url(#SVGID_85_)" points="223.028,226.682 223.028,186.25 188.014,166.035 188.014,206.466 			"/>
			<polygon fill="#FFBD1A" points="220.798,227.956 185.784,207.813 185.784,167.354 220.798,187.498 			"/>
			<polygon fill="#FCD55E" points="185.784,167.354 188.014,166.018 223.028,186.233 220.798,187.498 			"/>
			<polygon fill="#FCD55E" points="220.798,227.956 223.028,226.664 223.028,186.233 220.798,187.498 			"/>
			<path fill="#FFFFFF" d="M213.6,202.418v-8.786c0-1.632-1.146-3.614-2.558-4.427l-14.244-8.194
				c-1.413-0.813-2.558-0.148-2.558,1.483v8.787c-1.681-0.772-2.997,0.089-2.997,2.081v3.071c0,2.123,1.489,4.701,3.327,5.758
				l0.063,0.036v0.335c0,2.039,1.443,4.538,3.208,5.554c1.765,1.015,3.208,0.177,3.208-1.862v-0.335l7.05,4.056v0.335
				c0,2.039,1.444,4.538,3.208,5.553l0,0c1.766,1.016,3.209,0.178,3.209-1.861v-0.619c1.219,0.131,2.081-0.749,2.081-2.363v-3.07
				C216.597,205.956,215.28,203.579,213.6,202.418z M194.327,196.979c-1.057-0.607-1.912-2.089-1.912-3.31
				c0-1.22,0.855-1.717,1.912-1.109c1.056,0.607,1.912,2.09,1.912,3.31C196.239,197.091,195.383,197.587,194.327,196.979z
				 M213.513,208.017c-1.056-0.607-1.912-2.089-1.912-3.309c0-1.221,0.856-1.717,1.912-1.109c1.057,0.607,1.912,2.089,1.912,3.309
				C215.425,208.128,214.569,208.625,213.513,208.017z"/>
		</g>
		<linearGradient id="SVGID_86_" gradientUnits="userSpaceOnUse" x1="223.0283" y1="197.0088" x2="255.8525" y2="197.0088">
			<stop  offset="0" style="stop-color:#EEFFFF;stop-opacity:0.3"/>
			<stop  offset="0.1413" style="stop-color:#EEFFFF;stop-opacity:0.2576"/>
			<stop  offset="1" style="stop-color:#EEFFFF;stop-opacity:0"/>
		</linearGradient>
		<polygon fill="url(#SVGID_86_)" points="223.028,186.233 255.853,167.354 255.853,207.813 223.028,226.664 		"/>
	</g>
	<g>
		<linearGradient id="SVGID_87_" gradientUnits="userSpaceOnUse" x1="346.8271" y1="75.417" x2="330.4463" y2="103.7895">
			<stop  offset="0" style="stop-color:#3973D4;stop-opacity:0"/>
			<stop  offset="0.8587" style="stop-color:#3973D4;stop-opacity:0.2576"/>
			<stop  offset="1" style="stop-color:#3973D4;stop-opacity:0.3"/>
		</linearGradient>
		<polygon fill="url(#SVGID_87_)" points="304.718,88.935 337.502,70.033 372.557,90.271 339.732,109.15 		"/>
		<g>
			<linearGradient id="SVGID_88_" gradientUnits="userSpaceOnUse" x1="303.6367" y1="130.7295" x2="303.6367" y2="88.9717">
				<stop  offset="0" style="stop-color:#47C95C"/>
				<stop  offset="0.5789" style="stop-color:#70E798"/>
				<stop  offset="1" style="stop-color:#8FFFC7"/>
			</linearGradient>
			<polygon opacity="0.75" fill="url(#SVGID_88_)" points="302.487,90.271 304.787,88.972 304.787,129.403 302.487,130.729 			"/>
			<linearGradient id="SVGID_89_" gradientUnits="userSpaceOnUse" x1="304.7178" y1="119.2754" x2="339.7324" y2="119.2754">
				<stop  offset="0" style="stop-color:#47C95C"/>
				<stop  offset="0.5789" style="stop-color:#70E798"/>
				<stop  offset="1" style="stop-color:#8FFFC7"/>
			</linearGradient>
			<polygon opacity="0.75" fill="url(#SVGID_89_)" points="339.732,149.599 339.732,109.168 304.718,88.952 304.718,129.383 			"/>
			<polygon fill="#EAEAEA" points="337.502,150.873 302.487,130.729 302.487,90.271 337.502,110.415 			"/>
			<polygon fill="#FFFFFF" points="302.487,90.271 304.718,88.935 339.732,109.15 337.502,110.415 			"/>
			<polygon fill="#FFFFFF" points="337.502,150.873 339.732,149.581 339.732,109.15 337.502,110.415 			"/>
			<g>
				<polygon fill="#3973D4" points="329.65,138.059 310.339,126.949 310.339,114.92 329.65,126.029 				"/>
				<polygon fill="#3973D4" points="328.547,116.81 311.443,106.97 311.443,103.086 328.547,112.925 				"/>
				<g>
					<polygon fill="#3973D4" points="312.568,115.081 306.527,111.605 311.453,107.775 315.285,109.979 					"/>
					<polygon fill="#3973D4" points="323.016,121.091 316.975,117.615 318.079,111.587 321.91,113.791 					"/>
					<polygon fill="#3973D4" points="333.463,127.101 327.422,123.625 324.705,115.398 328.536,117.603 					"/>
				</g>
			</g>
		</g>
		<linearGradient id="SVGID_90_" gradientUnits="userSpaceOnUse" x1="339.7324" y1="119.9263" x2="372.5566" y2="119.9263">
			<stop  offset="0" style="stop-color:#3973D4;stop-opacity:0.3"/>
			<stop  offset="0.1413" style="stop-color:#3973D4;stop-opacity:0.2576"/>
			<stop  offset="1" style="stop-color:#3973D4;stop-opacity:0"/>
		</linearGradient>
		<polygon fill="url(#SVGID_90_)" points="339.732,109.15 372.557,90.271 372.557,130.729 339.732,149.581 		"/>
	</g>
	<g>
		<linearGradient id="SVGID_91_" gradientUnits="userSpaceOnUse" x1="314.6279" y1="129.1514" x2="298.2471" y2="157.5238">
			<stop  offset="0" style="stop-color:#FFB806;stop-opacity:0"/>
			<stop  offset="0.8587" style="stop-color:#FFB806;stop-opacity:0.2576"/>
			<stop  offset="1" style="stop-color:#FFB806;stop-opacity:0.3"/>
		</linearGradient>
		<polygon fill="url(#SVGID_91_)" points="272.518,142.668 305.302,123.767 340.356,144.005 307.532,162.884 		"/>
		<g>
			<linearGradient id="SVGID_92_" gradientUnits="userSpaceOnUse" x1="271.4375" y1="184.4639" x2="271.4375" y2="142.7056">
				<stop  offset="0" style="stop-color:#F7A143"/>
				<stop  offset="0.8579" style="stop-color:#FEDD6E"/>
				<stop  offset="1" style="stop-color:#FFE876"/>
			</linearGradient>
			<polygon opacity="0.75" fill="url(#SVGID_92_)" points="270.287,144.005 272.587,142.705 272.587,183.137 270.287,184.464 			"/>
			<linearGradient id="SVGID_93_" gradientUnits="userSpaceOnUse" x1="272.5176" y1="173.0093" x2="307.5322" y2="173.0093">
				<stop  offset="0" style="stop-color:#F7A143"/>
				<stop  offset="0.8579" style="stop-color:#FEDD6E"/>
				<stop  offset="1" style="stop-color:#FFE876"/>
			</linearGradient>
			<polygon opacity="0.75" fill="url(#SVGID_93_)" points="307.532,203.333 307.532,162.901 272.518,142.686 272.518,183.117 			"/>
			<polygon fill="#FFBD1A" points="305.302,204.606 270.287,184.464 270.287,144.005 305.302,164.148 			"/>
			<polygon fill="#FFDB76" points="270.287,144.005 272.518,142.668 307.532,162.884 305.302,164.148 			"/>
			<polygon fill="#FFDB76" points="305.302,204.606 307.532,203.315 307.532,162.884 305.302,164.148 			"/>
			<path fill="#EAEAEA" d="M298.418,189.896c-0.114-0.416-0.278-0.823-0.48-1.215l0.432-22.642l-18.92-9.336l-0.343,18.04
				c-0.824-0.673-1.76-1.123-2.67-1.214c-2.113-0.213-3.288,1.574-2.626,3.992c0.665,2.416,2.916,4.55,5.029,4.762
				s3.288-1.576,2.625-3.992c-0.181-0.655-0.479-1.286-0.857-1.866l0.237-12.44l15.879,7.959l-0.28,14.742
				c-0.911-0.86-1.998-1.444-3.054-1.551c-2.113-0.213-3.289,1.575-2.626,3.992c0.665,2.416,2.917,4.548,5.029,4.761
				C297.906,194.102,299.081,192.314,298.418,189.896z"/>
		</g>
		<linearGradient id="SVGID_94_" gradientUnits="userSpaceOnUse" x1="307.5322" y1="173.6602" x2="340.3564" y2="173.6602">
			<stop  offset="0" style="stop-color:#FFB806;stop-opacity:0.3"/>
			<stop  offset="0.1413" style="stop-color:#FFB806;stop-opacity:0.2576"/>
			<stop  offset="1" style="stop-color:#FFB806;stop-opacity:0"/>
		</linearGradient>
		<polygon fill="url(#SVGID_94_)" points="307.532,162.884 340.356,144.005 340.356,184.464 307.532,203.315 		"/>
	</g>
	<g>
		<linearGradient id="SVGID_95_" gradientUnits="userSpaceOnUse" x1="284.1865" y1="54.8662" x2="267.8057" y2="83.2387">
			<stop  offset="0" style="stop-color:#3973D4;stop-opacity:0"/>
			<stop  offset="0.8587" style="stop-color:#3973D4;stop-opacity:0.2576"/>
			<stop  offset="1" style="stop-color:#3973D4;stop-opacity:0.3"/>
		</linearGradient>
		<polygon fill="url(#SVGID_95_)" points="242.077,68.384 274.861,49.482 309.916,69.721 277.092,88.6 		"/>
		<g>
			<linearGradient id="SVGID_96_" gradientUnits="userSpaceOnUse" x1="240.9961" y1="110.1797" x2="240.9961" y2="68.4219">
				<stop  offset="0" style="stop-color:#CE62E8"/>
				<stop  offset="0.784" style="stop-color:#F49EC3"/>
				<stop  offset="1" style="stop-color:#FFB0B8"/>
			</linearGradient>
			<polygon opacity="0.75" fill="url(#SVGID_96_)" points="239.847,69.721 242.146,68.422 242.146,108.853 239.847,110.18 			"/>
			<linearGradient id="SVGID_97_" gradientUnits="userSpaceOnUse" x1="242.0771" y1="98.7251" x2="277.0918" y2="98.7251">
				<stop  offset="0" style="stop-color:#CE62E8"/>
				<stop  offset="0.784" style="stop-color:#F49EC3"/>
				<stop  offset="1" style="stop-color:#FFB0B8"/>
			</linearGradient>
			<polygon opacity="0.75" fill="url(#SVGID_97_)" points="277.092,129.049 277.092,88.617 242.077,68.401 242.077,108.833 			"/>
			<polygon fill="#1F3696" points="274.861,130.322 239.847,110.18 239.847,69.721 274.861,89.864 			"/>
			<polygon fill="#3C72D1" points="239.847,69.721 242.077,68.384 277.092,88.6 274.861,89.864 			"/>
			<polygon fill="#3C72D1" points="274.861,130.322 277.092,129.031 277.092,88.6 274.861,89.864 			"/>
			<g>
				<path fill="#EAEAEA" d="M251.587,107.037l5.989-6.534c0.645-0.703,0.64-2.084,0.073-3.463c3.183,2.939,6.37-2.542,6.072-7.159
					c0,0-0.977,1.354-4.518,0.946c-3.498-0.404-4.331,1.548-3.196,3.867c-0.99-0.871-2.084-1.149-2.794-0.609l-6.876,5.229
					c-1.247,0.948-1.029,3.608,0.477,5.825C248.321,107.356,250.5,108.223,251.587,107.037z"/>
				<path fill="#EAEAEA" d="M265.165,95.05c-2.315,2.109-3.117,6.709,0,7.924C268.281,104.189,265.376,96.846,265.165,95.05z"/>
			</g>
		</g>
		<linearGradient id="SVGID_98_" gradientUnits="userSpaceOnUse" x1="277.0918" y1="99.376" x2="309.916" y2="99.376">
			<stop  offset="0" style="stop-color:#3973D4;stop-opacity:0.3"/>
			<stop  offset="0.1413" style="stop-color:#3973D4;stop-opacity:0.2576"/>
			<stop  offset="1" style="stop-color:#3973D4;stop-opacity:0"/>
		</linearGradient>
		<polygon fill="url(#SVGID_98_)" points="277.092,88.6 309.916,69.721 309.916,110.18 277.092,129.031 		"/>
	</g>
	<g>
		<linearGradient id="SVGID_99_" gradientUnits="userSpaceOnUse" x1="262.5635" y1="118.478" x2="246.1829" y2="146.8501">
			<stop  offset="0" style="stop-color:#3973D4;stop-opacity:0"/>
			<stop  offset="0.8587" style="stop-color:#3973D4;stop-opacity:0.2576"/>
			<stop  offset="1" style="stop-color:#3973D4;stop-opacity:0.3"/>
		</linearGradient>
		<polygon fill="url(#SVGID_99_)" points="220.453,131.995 253.237,113.094 288.292,133.333 255.468,152.211 		"/>
		<g>
			<linearGradient id="SVGID_100_" gradientUnits="userSpaceOnUse" x1="219.373" y1="173.791" x2="219.373" y2="132.0332">
				<stop  offset="0" style="stop-color:#32B6CC"/>
				<stop  offset="0.6424" style="stop-color:#6EE4E5"/>
				<stop  offset="1" style="stop-color:#92FFF4"/>
			</linearGradient>
			<polygon opacity="0.75" fill="url(#SVGID_100_)" points="218.223,133.333 220.522,132.033 220.522,172.465 218.223,173.791 			
				"/>
			<linearGradient id="SVGID_101_" gradientUnits="userSpaceOnUse" x1="220.4531" y1="162.3364" x2="255.4678" y2="162.3364">
				<stop  offset="0" style="stop-color:#32B6CC"/>
				<stop  offset="0.6424" style="stop-color:#6EE4E5"/>
				<stop  offset="1" style="stop-color:#92FFF4"/>
			</linearGradient>
			<polygon opacity="0.75" fill="url(#SVGID_101_)" points="255.468,192.66 255.468,152.229 220.453,132.013 220.453,172.444 			"/>
			<polygon fill="#1F3696" points="253.237,193.935 218.223,173.791 218.223,133.333 253.237,153.476 			"/>
			<polygon fill="#3C72D1" points="218.223,133.333 220.453,131.995 255.468,152.211 253.237,153.476 			"/>
			<polygon fill="#3C72D1" points="253.237,193.935 255.468,192.643 255.468,152.211 253.237,153.476 			"/>
			<path fill="#FFFFFF" d="M241.465,159.472l-11.469-6.598c-2.7-1.554-4.889-0.283-4.889,2.836v4.229
				c0,3.119,2.188,6.907,4.889,8.461l8.402,4.834l5.292,6.97l-0.277-4.555c1.729,0.125,2.94-1.169,2.94-3.487v-4.229
				C246.354,164.813,244.164,161.024,241.465,159.472z"/>
		</g>
		<linearGradient id="SVGID_102_" gradientUnits="userSpaceOnUse" x1="255.4678" y1="162.9878" x2="288.292" y2="162.9878">
			<stop  offset="0" style="stop-color:#3973D4;stop-opacity:0.3"/>
			<stop  offset="0.1413" style="stop-color:#3973D4;stop-opacity:0.2576"/>
			<stop  offset="1" style="stop-color:#3973D4;stop-opacity:0"/>
		</linearGradient>
		<polygon fill="url(#SVGID_102_)" points="255.468,152.211 288.292,133.333 288.292,173.791 255.468,192.643 		"/>
	</g>
	<g>
		<linearGradient id="SVGID_103_" gradientUnits="userSpaceOnUse" x1="219.8447" y1="83.6582" x2="203.4636" y2="112.0311">
			<stop  offset="0" style="stop-color:#FFB806;stop-opacity:0"/>
			<stop  offset="0.8587" style="stop-color:#FFB806;stop-opacity:0.2576"/>
			<stop  offset="1" style="stop-color:#FFB806;stop-opacity:0.3"/>
		</linearGradient>
		<polygon fill="url(#SVGID_103_)" points="177.733,97.176 210.518,78.273 245.572,98.513 212.748,117.391 		"/>
		<g>
			<linearGradient id="SVGID_104_" gradientUnits="userSpaceOnUse" x1="176.6523" y1="138.9707" x2="176.6523" y2="97.2129">
				<stop  offset="0" style="stop-color:#E24B5E"/>
				<stop  offset="0.6238" style="stop-color:#F48799"/>
				<stop  offset="1" style="stop-color:#FFAEBE"/>
			</linearGradient>
			<polygon opacity="0.75" fill="url(#SVGID_104_)" points="175.503,98.513 177.803,97.213 177.803,137.645 175.503,138.971 			"/>
			<linearGradient id="SVGID_105_" gradientUnits="userSpaceOnUse" x1="177.7334" y1="127.5161" x2="212.748" y2="127.5161">
				<stop  offset="0" style="stop-color:#E24B5E"/>
				<stop  offset="0.6238" style="stop-color:#F48799"/>
				<stop  offset="1" style="stop-color:#FFAEBE"/>
			</linearGradient>
			<polygon opacity="0.75" fill="url(#SVGID_105_)" points="212.748,157.84 212.748,117.408 177.733,97.192 177.733,137.624 			"/>
			<polygon fill="#FFBD1A" points="210.518,159.114 175.503,138.971 175.503,98.513 210.518,118.655 			"/>
			<polygon fill="#FFDB76" points="175.503,98.513 177.733,97.176 212.748,117.391 210.518,118.655 			"/>
			<polygon fill="#FFDB76" points="210.518,159.114 212.748,157.822 212.748,117.391 210.518,118.655 			"/>
			<g>
				<g>
					<path fill="#EAEAEA" d="M201.674,143.157c1.698-1.322,2.729-3.706,2.729-6.965s-1.03-6.828-2.729-10.104
						c-1.844,1.158-2.984,3.507-2.984,6.818S199.83,139.878,201.674,143.157z"/>
				</g>
				<g>
					<path fill="#EAEAEA" d="M184.347,116.12c-1.697,1.322-2.729,3.706-2.729,6.965c0,3.26,1.031,6.829,2.729,10.104
						c1.844-1.158,2.984-3.506,2.984-6.817S186.19,119.399,184.347,116.12z"/>
				</g>
				<g>
					<path fill="#EAEAEA" d="M192.04,142.189v-26.218c-2.573-1.228-4.897-1.321-6.699-0.458c2.109,3.731,3.414,7.904,3.414,11.677
						c0,3.773-1.305,6.444-3.414,7.749C187.143,137.876,189.467,140.456,192.04,142.189z"/>
					<path fill="#EAEAEA" d="M200.68,124.338c-1.92-3.131-4.438-5.851-7.216-7.576v26.276c2.777,1.47,5.296,1.646,7.216,0.726
						c-2.108-3.731-3.414-7.904-3.414-11.677S198.571,125.643,200.68,124.338z"/>
				</g>
			</g>
		</g>
		<linearGradient id="SVGID_106_" gradientUnits="userSpaceOnUse" x1="212.748" y1="128.1675" x2="245.5723" y2="128.1675">
			<stop  offset="0" style="stop-color:#FFB806;stop-opacity:0.3"/>
			<stop  offset="0.1413" style="stop-color:#FFB806;stop-opacity:0.2576"/>
			<stop  offset="1" style="stop-color:#FFB806;stop-opacity:0"/>
		</linearGradient>
		<polygon fill="url(#SVGID_106_)" points="212.748,117.391 245.572,98.513 245.572,138.971 212.748,157.822 		"/>
	</g>
	<g display="none" opacity="0.53">
		<path display="inline" fill="#FFFFFF" d="M350.676,44.408l0.327-0.112c-0.217-0.07-0.434-0.142-0.651-0.211
			c0.103,0.104,0.208,0.203,0.31,0.309C350.666,44.398,350.671,44.403,350.676,44.408z"/>
		<g display="inline">
			<path fill="#FFFFFF" d="M372.725,52.981c-0.916-0.442-1.838-0.88-2.768-1.308l-0.025,0.625c0.931,0.429,1.853,0.867,2.769,1.312
				L372.725,52.981z"/>
			<path fill="#FFFFFF" d="M396.618,67.309l-0.026,0.67l-0.019,0.011c18.552,13.758,32.096,31.097,38.433,50.452l0.738,0.426
				C429.42,99.056,415.607,81.317,396.618,67.309z"/>
		</g>
		<g display="inline">
			<path fill="#FFFFFF" d="M246.52,40.442v-0.579c-7.354,1.667-14.462,3.741-21.28,6.182v0.597
				C232.056,44.194,239.164,42.114,246.52,40.442z"/>
			<path fill="#FFFFFF" d="M437.598,125.705l-0.041,0.024l-0.613-0.354c1.366,5.872,2.088,11.901,2.088,18.052
				c0,59.479-66.546,107.868-148.341,107.868S142.35,202.906,142.35,143.427c0-31.937,19.19-60.673,49.622-80.441l-0.545-0.313
				c-30.451,19.868-49.644,48.709-49.644,80.755c0,59.791,66.8,108.435,148.907,108.435s148.907-48.644,148.907-108.435
				C439.598,137.393,438.905,131.475,437.598,125.705z"/>
		</g>
	</g>
	<g>
		<g>
			<path fill="#132D98" d="M411.313,84.029c0.84,0.485,1.893,1.424,2.495,2.707l-1.324,0.431c-0.313-0.633-0.78-1.159-1.396-1.516
				c-1.26-0.727-2.23-0.115-2.293,1.455c-0.062,1.569,0.819,3.247,2.022,3.941c0.673,0.389,1.229,0.37,1.592-0.005l1.338,1.953
				c-0.669,0.635-1.751,0.484-2.783-0.11c-2.354-1.359-3.999-4.073-3.893-6.774C407.178,83.409,408.96,82.671,411.313,84.029z"/>
		</g>
		<g>
			<path fill="#132D98" d="M418.604,88.238c2.354,1.358,3.999,4.077,3.893,6.778s-1.888,3.437-4.241,2.078
				c-2.354-1.359-3.999-4.073-3.893-6.774S416.25,86.88,418.604,88.238z M418.322,95.381c1.417,0.818,2.389,0.211,2.45-1.359
				s-0.819-3.251-2.236-4.069s-2.389-0.207-2.45,1.363C416.023,92.886,416.905,94.563,418.322,95.381"/>
		</g>
		<g>
			<path fill="#132D98" d="M426.278,92.892c2.429,1.402,4.417,3.73,4.296,6.811c-0.107,2.728-2.156,3.041-4.404,1.744l-2.716-1.568
				l0.332-8.425L426.278,92.892z M426.047,99.622c1.542,0.891,2.729,0.908,2.804-1.013c0.065-1.65-1.085-3.105-2.491-3.918
				l-0.979-0.565l-0.197,4.997L426.047,99.622"/>
		</g>
		<g>
			<polygon fill="#132D98" points="437.049,99.11 436.981,100.824 433.524,98.828 433.463,100.397 436.729,102.283 436.661,103.997 
				433.395,102.111 433.327,103.825 436.979,105.934 436.911,107.647 431.599,104.58 431.931,96.155 			"/>
		</g>
	</g>
</g>
</svg>
